<svg width="537" height="602" viewBox="0 0 537 602" fill="none" xmlns="http://www.w3.org/2000/svg">
<rect y="89" width="537" height="513" rx="12" fill="#260F31"/>
<path d="M204.07 8V29H199.57V8H204.07ZM210.88 18.02V19.28H203.98V18.02H210.88ZM212.35 8V9.29H203.98V8H212.35ZM210.88 19.22V22.1H210.58V21.86C210.58 21.12 210.34 20.51 209.86 20.03C209.38 19.55 208.77 19.3 208.03 19.28V19.22H210.88ZM210.88 15.2V18.08H208.03V18.02C208.77 18 209.38 17.75 209.86 17.27C210.34 16.77 210.58 16.15 210.58 15.41V15.2H210.88ZM212.35 9.2V12.53H212.05V12.23C212.05 11.33 211.78 10.62 211.24 10.1C210.72 9.56 210.01 9.29 209.11 9.29V9.2H212.35ZM212.35 7.46V8.33L208.69 8C209.13 8 209.59 7.97 210.07 7.91C210.57 7.85 211.03 7.78 211.45 7.7C211.87 7.62 212.17 7.54 212.35 7.46ZM199.66 26.81V29H197.26V28.7C197.26 28.7 197.32 28.7 197.44 28.7C197.58 28.7 197.65 28.7 197.65 28.7C198.17 28.7 198.61 28.52 198.97 28.16C199.35 27.78 199.55 27.33 199.57 26.81H199.66ZM199.66 10.19H199.57C199.55 9.67 199.35 9.23 198.97 8.87C198.61 8.49 198.17 8.3 197.65 8.3C197.65 8.3 197.58 8.3 197.44 8.3C197.32 8.3 197.26 8.3 197.26 8.3V8H199.66V10.19ZM203.98 26.81H204.07C204.09 27.33 204.28 27.78 204.64 28.16C205.02 28.52 205.47 28.7 205.99 28.7C205.99 28.7 206.05 28.7 206.17 28.7C206.29 28.7 206.36 28.7 206.38 28.7V29H203.98V26.81ZM220.752 11V29H216.432V11H220.752ZM227.772 27.8L228.462 29H220.692V27.8H227.772ZM226.752 19.49V20.69H220.692V19.49H226.752ZM228.102 11V12.2H220.692V11H228.102ZM229.692 23.48L228.552 29H223.362L224.292 27.8C225.152 27.8 225.912 27.63 226.572 27.29C227.252 26.93 227.832 26.43 228.312 25.79C228.792 25.13 229.162 24.36 229.422 23.48H229.692ZM226.752 20.63V23.27H226.452V23.03C226.452 22.37 226.242 21.82 225.822 21.38C225.422 20.94 224.872 20.71 224.172 20.69V20.63H226.752ZM226.752 16.91V19.55H224.172V19.49C224.872 19.47 225.422 19.24 225.822 18.8C226.242 18.34 226.452 17.78 226.452 17.12V16.91H226.752ZM228.102 12.14V15.32H227.802V15.05C227.802 14.17 227.562 13.48 227.082 12.98C226.622 12.48 225.952 12.22 225.072 12.2V12.14H228.102ZM228.102 10.55V11.27L224.952 11C225.532 11 226.142 10.95 226.782 10.85C227.422 10.73 227.862 10.63 228.102 10.55ZM216.492 27.11L216.642 29H214.422V28.7C214.422 28.7 214.482 28.7 214.602 28.7C214.722 28.7 214.792 28.7 214.812 28.7C215.252 28.7 215.622 28.55 215.922 28.25C216.242 27.93 216.412 27.55 216.432 27.11H216.492ZM216.492 12.89H216.432C216.412 12.43 216.242 12.05 215.922 11.75C215.622 11.45 215.252 11.3 214.812 11.3C214.792 11.3 214.722 11.3 214.602 11.3C214.482 11.3 214.422 11.3 214.422 11.3V11H216.642L216.492 12.89ZM239.906 10.19L248.786 28.85H243.716L238.136 15.68L239.906 10.19ZM234.266 27.02C234.046 27.56 234.076 27.98 234.356 28.28C234.636 28.56 234.946 28.7 235.286 28.7H235.526V29H229.526V28.7C229.526 28.7 229.566 28.7 229.646 28.7C229.726 28.7 229.766 28.7 229.766 28.7C230.166 28.7 230.586 28.58 231.026 28.34C231.466 28.08 231.826 27.64 232.106 27.02H234.266ZM239.906 10.19L239.966 13.79L233.456 28.91H231.236L238.256 13.82C238.296 13.7 238.386 13.49 238.526 13.19C238.666 12.87 238.816 12.52 238.976 12.14C239.136 11.74 239.286 11.37 239.426 11.03C239.566 10.67 239.646 10.39 239.666 10.19H239.906ZM242.516 23.12V24.29H234.866V23.12H242.516ZM242.966 27.02H247.916C248.216 27.64 248.586 28.08 249.026 28.34C249.466 28.58 249.886 28.7 250.286 28.7C250.286 28.7 250.326 28.7 250.406 28.7C250.486 28.7 250.526 28.7 250.526 28.7V29H241.706V28.7H241.946C242.286 28.7 242.596 28.56 242.876 28.28C243.156 27.98 243.186 27.56 242.966 27.02ZM259.045 11.09V29H254.695V11.09H259.045ZM265.585 10.97V12.17H248.185V10.97H265.585ZM265.585 12.08V15.26H265.255V14.99C265.275 14.13 265.035 13.45 264.535 12.95C264.055 12.45 263.385 12.19 262.525 12.17V12.08H265.585ZM265.585 10.52V11.27L262.405 10.97C262.785 10.97 263.195 10.95 263.635 10.91C264.075 10.85 264.475 10.79 264.835 10.73C265.195 10.65 265.445 10.58 265.585 10.52ZM254.755 27.11V29H252.745V28.7C252.745 28.7 252.795 28.7 252.895 28.7C253.015 28.7 253.075 28.7 253.075 28.7C253.515 28.7 253.885 28.55 254.185 28.25C254.505 27.93 254.675 27.55 254.695 27.11H254.755ZM258.955 27.11H259.045C259.045 27.55 259.205 27.93 259.525 28.25C259.845 28.55 260.235 28.7 260.695 28.7C260.695 28.7 260.745 28.7 260.845 28.7C260.965 28.7 261.025 28.7 261.025 28.7V29H258.955V27.11ZM251.245 12.08V12.17C250.365 12.19 249.685 12.45 249.205 12.95C248.745 13.45 248.515 14.13 248.515 14.99V15.26H248.185V12.08H251.245ZM248.185 10.52C248.365 10.56 248.625 10.62 248.965 10.7C249.325 10.78 249.715 10.85 250.135 10.91C250.575 10.95 250.975 10.97 251.335 10.97L248.185 11.27V10.52ZM272.95 11V22.31C272.95 24.15 273.37 25.59 274.21 26.63C275.07 27.67 276.26 28.19 277.78 28.19C279.36 28.19 280.58 27.7 281.44 26.72C282.32 25.74 282.77 24.38 282.79 22.64V11H284.77V22.46C284.77 24.6 284.11 26.29 282.79 27.53C281.49 28.77 279.64 29.39 277.24 29.39C274.34 29.39 272.18 28.78 270.76 27.56C269.34 26.32 268.63 24.63 268.63 22.49V11H272.95ZM268.69 11V12.56H268.63C268.61 12.18 268.47 11.87 268.21 11.63C267.95 11.39 267.63 11.27 267.25 11.27C267.25 11.27 267.18 11.27 267.04 11.27C266.9 11.27 266.83 11.27 266.83 11.27V11H268.69ZM274.72 11V11.27C274.72 11.27 274.65 11.27 274.51 11.27C274.37 11.27 274.3 11.27 274.3 11.27C273.92 11.27 273.6 11.39 273.34 11.63C273.08 11.87 272.95 12.18 272.95 12.56H272.89V11H274.72ZM282.85 11V12.56H282.79C282.77 12.18 282.63 11.87 282.37 11.63C282.11 11.39 281.8 11.27 281.44 11.27C281.44 11.27 281.37 11.27 281.23 11.27C281.09 11.27 281.02 11.27 281.02 11.27V11H282.85ZM286.54 11V11.27C286.54 11.27 286.47 11.27 286.33 11.27C286.21 11.27 286.15 11.27 286.15 11.27C285.77 11.27 285.44 11.39 285.16 11.63C284.9 11.87 284.77 12.18 284.77 12.56H284.71V11H286.54ZM294.402 11H297.642C298.462 11 299.262 11.09 300.042 11.27C300.822 11.43 301.522 11.7 302.142 12.08C302.762 12.44 303.252 12.94 303.612 13.58C303.992 14.2 304.182 14.98 304.182 15.92C304.182 16.62 304.032 17.32 303.732 18.02C303.452 18.7 303.002 19.29 302.382 19.79C301.782 20.29 300.992 20.62 300.012 20.78C300.592 20.96 301.142 21.31 301.662 21.83C302.202 22.35 302.622 22.84 302.922 23.3C303.002 23.46 303.142 23.72 303.342 24.08C303.542 24.42 303.792 24.82 304.092 25.28C304.412 25.72 304.742 26.18 305.082 26.66C305.482 27.2 305.832 27.62 306.132 27.92C306.432 28.2 306.742 28.4 307.062 28.52C307.382 28.64 307.752 28.7 308.172 28.7V29H305.652C304.572 29 303.652 28.92 302.892 28.76C302.152 28.6 301.502 28.31 300.942 27.89C300.402 27.45 299.902 26.86 299.442 26.12C299.262 25.86 299.072 25.55 298.872 25.19C298.672 24.81 298.472 24.43 298.272 24.05C298.072 23.67 297.892 23.3 297.732 22.94C297.592 22.58 297.492 22.28 297.432 22.04C297.172 21.4 296.872 20.94 296.532 20.66C296.212 20.36 295.912 20.21 295.632 20.21V19.94C295.632 19.94 295.702 19.94 295.842 19.94C295.982 19.94 296.162 19.94 296.382 19.94C296.802 19.94 297.212 19.87 297.612 19.73C298.032 19.57 298.412 19.28 298.752 18.86C299.092 18.42 299.342 17.78 299.502 16.94C299.542 16.82 299.572 16.65 299.592 16.43C299.632 16.21 299.642 15.96 299.622 15.68C299.582 14.94 299.442 14.35 299.202 13.91C298.982 13.45 298.702 13.11 298.362 12.89C298.022 12.65 297.672 12.49 297.312 12.41C296.972 12.31 296.672 12.26 296.412 12.26C296.032 12.24 295.682 12.24 295.362 12.26C295.062 12.26 294.832 12.25 294.672 12.23C294.652 12.23 294.622 12.13 294.582 11.93C294.542 11.71 294.502 11.5 294.462 11.3C294.422 11.1 294.402 11 294.402 11ZM294.702 11V29H290.352V11H294.702ZM290.442 27.11L290.562 29H288.402V28.7C288.422 28.7 288.472 28.7 288.552 28.7C288.652 28.7 288.722 28.7 288.762 28.7C289.202 28.7 289.572 28.55 289.872 28.25C290.192 27.93 290.362 27.55 290.382 27.11H290.442ZM290.442 12.86H290.382C290.362 12.4 290.192 12.03 289.872 11.75C289.572 11.45 289.212 11.3 288.792 11.3C288.732 11.3 288.652 11.3 288.552 11.3C288.472 11.3 288.422 11.3 288.402 11.3V11H290.562L290.442 12.86ZM294.642 27.11H294.702C294.702 27.61 294.872 28 295.212 28.28C295.572 28.56 295.952 28.7 296.352 28.7C296.352 28.7 296.392 28.7 296.472 28.7C296.552 28.7 296.612 28.7 296.652 28.7V29H294.492L294.642 27.11ZM314.268 11V29H309.948V11H314.268ZM321.288 27.8L321.978 29H314.208V27.8H321.288ZM320.268 19.49V20.69H314.208V19.49H320.268ZM321.618 11V12.2H314.208V11H321.618ZM323.208 23.48L322.068 29H316.878L317.808 27.8C318.668 27.8 319.428 27.63 320.088 27.29C320.768 26.93 321.348 26.43 321.828 25.79C322.308 25.13 322.678 24.36 322.938 23.48H323.208ZM320.268 20.63V23.27H319.968V23.03C319.968 22.37 319.758 21.82 319.338 21.38C318.938 20.94 318.388 20.71 317.688 20.69V20.63H320.268ZM320.268 16.91V19.55H317.688V19.49C318.388 19.47 318.938 19.24 319.338 18.8C319.758 18.34 319.968 17.78 319.968 17.12V16.91H320.268ZM321.618 12.14V15.32H321.318V15.05C321.318 14.17 321.078 13.48 320.598 12.98C320.138 12.48 319.468 12.22 318.588 12.2V12.14H321.618ZM321.618 10.55V11.27L318.468 11C319.048 11 319.658 10.95 320.298 10.85C320.938 10.73 321.378 10.63 321.618 10.55ZM310.008 27.11L310.158 29H307.938V28.7C307.938 28.7 307.998 28.7 308.118 28.7C308.238 28.7 308.308 28.7 308.328 28.7C308.768 28.7 309.138 28.55 309.438 28.25C309.758 27.93 309.928 27.55 309.948 27.11H310.008ZM310.008 12.89H309.948C309.928 12.43 309.758 12.05 309.438 11.75C309.138 11.45 308.768 11.3 308.328 11.3C308.308 11.3 308.238 11.3 308.118 11.3C307.998 11.3 307.938 11.3 307.938 11.3V11H310.158L310.008 12.89ZM330.992 10.61C331.392 10.61 331.872 10.63 332.432 10.67C333.012 10.71 333.582 10.76 334.142 10.82C334.702 10.86 335.192 10.92 335.612 11C336.052 11.06 336.352 11.12 336.512 11.18L336.122 14.84H335.852C335.852 13.92 335.532 13.19 334.892 12.65C334.252 12.11 333.332 11.84 332.132 11.84C331.172 11.84 330.392 12.05 329.792 12.47C329.212 12.89 328.902 13.45 328.862 14.15C328.822 14.51 328.882 14.84 329.042 15.14C329.222 15.42 329.462 15.67 329.762 15.89C330.082 16.11 330.432 16.33 330.812 16.55L335.522 19.46C336.322 19.86 336.952 20.44 337.412 21.2C337.872 21.96 338.072 22.88 338.012 23.96C337.952 25.08 337.622 26.05 337.022 26.87C336.442 27.69 335.632 28.32 334.592 28.76C333.572 29.18 332.362 29.39 330.962 29.39C330.102 29.39 329.302 29.32 328.562 29.18C327.822 29.04 327.182 28.85 326.642 28.61C326.122 28.37 325.722 28.1 325.442 27.8C325.282 27.4 325.212 26.92 325.232 26.36C325.252 25.78 325.342 25.21 325.502 24.65C325.662 24.07 325.862 23.59 326.102 23.21H326.342C326.282 24.11 326.442 24.94 326.822 25.7C327.222 26.46 327.802 27.07 328.562 27.53C329.322 27.97 330.232 28.19 331.292 28.19C332.452 28.19 333.322 27.92 333.902 27.38C334.482 26.84 334.772 26.21 334.772 25.49C334.772 24.95 334.592 24.47 334.232 24.05C333.892 23.61 333.322 23.18 332.522 22.76L328.262 20.06C327.262 19.54 326.532 18.85 326.072 17.99C325.632 17.13 325.472 16.19 325.592 15.17C325.692 14.21 325.972 13.39 326.432 12.71C326.912 12.03 327.542 11.51 328.322 11.15C329.102 10.79 329.992 10.61 330.992 10.61ZM336.512 10.88L336.482 11.42H333.272V10.88H336.512Z" fill="#FBFAF5"/>
<path d="M34.665 119.35C34.665 118.045 34.9563 116.88 35.539 115.854C36.1343 114.815 36.9387 114.011 37.952 113.441C38.978 112.858 40.1243 112.567 41.391 112.567C42.873 112.567 44.1713 112.947 45.286 113.707C46.4007 114.467 47.1797 115.518 47.623 116.861H44.564C44.26 116.228 43.8293 115.753 43.272 115.436C42.7273 115.119 42.094 114.961 41.372 114.961C40.5993 114.961 39.909 115.145 39.301 115.512C38.7057 115.867 38.237 116.373 37.895 117.032C37.5657 117.691 37.401 118.463 37.401 119.35C37.401 120.224 37.5657 120.997 37.895 121.668C38.237 122.327 38.7057 122.84 39.301 123.207C39.909 123.562 40.5993 123.739 41.372 123.739C42.094 123.739 42.7273 123.581 43.272 123.264C43.8293 122.935 44.26 122.453 44.564 121.82H47.623C47.1797 123.175 46.4007 124.233 45.286 124.993C44.184 125.74 42.8857 126.114 41.391 126.114C40.1243 126.114 38.978 125.829 37.952 125.259C36.9387 124.676 36.1343 123.872 35.539 122.846C34.9563 121.82 34.665 120.655 34.665 119.35ZM54.569 126.171C53.5557 126.171 52.6437 125.949 51.833 125.506C51.0223 125.05 50.3827 124.41 49.914 123.587C49.458 122.764 49.23 121.814 49.23 120.737C49.23 119.66 49.4643 118.71 49.933 117.887C50.4143 117.064 51.0667 116.43 51.89 115.987C52.7133 115.531 53.6317 115.303 54.645 115.303C55.6583 115.303 56.5767 115.531 57.4 115.987C58.2233 116.43 58.8693 117.064 59.338 117.887C59.8193 118.71 60.06 119.66 60.06 120.737C60.06 121.814 59.813 122.764 59.319 123.587C58.8377 124.41 58.179 125.05 57.343 125.506C56.5197 125.949 55.595 126.171 54.569 126.171ZM54.569 123.853C55.0503 123.853 55.5 123.739 55.918 123.511C56.3487 123.27 56.6907 122.916 56.944 122.447C57.1973 121.978 57.324 121.408 57.324 120.737C57.324 119.736 57.058 118.97 56.526 118.438C56.0067 117.893 55.367 117.621 54.607 117.621C53.847 117.621 53.2073 117.893 52.688 118.438C52.1813 118.97 51.928 119.736 51.928 120.737C51.928 121.738 52.175 122.51 52.669 123.055C53.1757 123.587 53.809 123.853 54.569 123.853ZM75.0832 115.322C76.3752 115.322 77.4139 115.721 78.1992 116.519C78.9972 117.304 79.3962 118.406 79.3962 119.825V126H76.7362V120.186C76.7362 119.363 76.5272 118.736 76.1092 118.305C75.6912 117.862 75.1212 117.64 74.3992 117.64C73.6772 117.64 73.1009 117.862 72.6702 118.305C72.2522 118.736 72.0432 119.363 72.0432 120.186V126H69.3832V120.186C69.3832 119.363 69.1742 118.736 68.7562 118.305C68.3382 117.862 67.7682 117.64 67.0462 117.64C66.3115 117.64 65.7289 117.862 65.2982 118.305C64.8802 118.736 64.6712 119.363 64.6712 120.186V126H62.0112V115.474H64.6712V116.747C65.0132 116.304 65.4502 115.955 65.9822 115.702C66.5269 115.449 67.1222 115.322 67.7682 115.322C68.5915 115.322 69.3262 115.499 69.9722 115.854C70.6182 116.196 71.1185 116.69 71.4732 117.336C71.8152 116.728 72.3092 116.24 72.9552 115.873C73.6139 115.506 74.3232 115.322 75.0832 115.322ZM84.5804 116.994C84.9224 116.513 85.391 116.114 85.9864 115.797C86.5944 115.468 87.2847 115.303 88.0574 115.303C88.9567 115.303 89.7674 115.525 90.4894 115.968C91.224 116.411 91.8004 117.045 92.2184 117.868C92.649 118.679 92.8644 119.622 92.8644 120.699C92.8644 121.776 92.649 122.732 92.2184 123.568C91.8004 124.391 91.224 125.031 90.4894 125.487C89.7674 125.943 88.9567 126.171 88.0574 126.171C87.2847 126.171 86.6007 126.013 86.0054 125.696C85.4227 125.379 84.9477 124.98 84.5804 124.499V131.016H81.9204V115.474H84.5804V116.994ZM90.1474 120.699C90.1474 120.066 90.0144 119.521 89.7484 119.065C89.495 118.596 89.153 118.242 88.7224 118.001C88.3044 117.76 87.8484 117.64 87.3544 117.64C86.873 117.64 86.417 117.767 85.9864 118.02C85.5684 118.261 85.2264 118.615 84.9604 119.084C84.707 119.553 84.5804 120.104 84.5804 120.737C84.5804 121.37 84.707 121.921 84.9604 122.39C85.2264 122.859 85.5684 123.22 85.9864 123.473C86.417 123.714 86.873 123.834 87.3544 123.834C87.8484 123.834 88.3044 123.707 88.7224 123.454C89.153 123.201 89.495 122.84 89.7484 122.371C90.0144 121.902 90.1474 121.345 90.1474 120.699ZM97.4573 111.94V126H94.7973V111.94H97.4573ZM109.87 120.509C109.87 120.889 109.845 121.231 109.794 121.535H102.099C102.163 122.295 102.429 122.89 102.897 123.321C103.366 123.752 103.942 123.967 104.626 123.967C105.614 123.967 106.317 123.543 106.735 122.694H109.604C109.3 123.707 108.718 124.543 107.856 125.202C106.995 125.848 105.937 126.171 104.683 126.171C103.67 126.171 102.758 125.949 101.947 125.506C101.149 125.05 100.522 124.41 100.066 123.587C99.6231 122.764 99.4014 121.814 99.4014 120.737C99.4014 119.648 99.6231 118.691 100.066 117.868C100.51 117.045 101.13 116.411 101.928 115.968C102.726 115.525 103.645 115.303 104.683 115.303C105.684 115.303 106.577 115.518 107.362 115.949C108.16 116.38 108.775 116.994 109.205 117.792C109.649 118.577 109.87 119.483 109.87 120.509ZM107.115 119.749C107.103 119.065 106.856 118.52 106.374 118.115C105.893 117.697 105.304 117.488 104.607 117.488C103.949 117.488 103.391 117.691 102.935 118.096C102.492 118.489 102.22 119.04 102.118 119.749H107.115ZM114.909 117.659V122.751C114.909 123.106 114.991 123.365 115.156 123.53C115.333 123.682 115.625 123.758 116.03 123.758H117.265V126H115.593C113.351 126 112.23 124.911 112.23 122.732V117.659H110.976V115.474H112.23V112.871H114.909V115.474H117.265V117.659H114.909ZM128.963 120.509C128.963 120.889 128.938 121.231 128.887 121.535H121.192C121.256 122.295 121.522 122.89 121.99 123.321C122.459 123.752 123.035 123.967 123.719 123.967C124.707 123.967 125.41 123.543 125.828 122.694H128.697C128.393 123.707 127.811 124.543 126.949 125.202C126.088 125.848 125.03 126.171 123.776 126.171C122.763 126.171 121.851 125.949 121.04 125.506C120.242 125.05 119.615 124.41 119.159 123.587C118.716 122.764 118.494 121.814 118.494 120.737C118.494 119.648 118.716 118.691 119.159 117.868C119.603 117.045 120.223 116.411 121.021 115.968C121.819 115.525 122.738 115.303 123.776 115.303C124.777 115.303 125.67 115.518 126.455 115.949C127.253 116.38 127.868 116.994 128.298 117.792C128.742 118.577 128.963 119.483 128.963 120.509ZM126.208 119.749C126.196 119.065 125.949 118.52 125.467 118.115C124.986 117.697 124.397 117.488 123.7 117.488C123.042 117.488 122.484 117.691 122.028 118.096C121.585 118.489 121.313 119.04 121.211 119.749H126.208ZM130.221 120.699C130.221 119.635 130.43 118.691 130.848 117.868C131.278 117.045 131.861 116.411 132.596 115.968C133.33 115.525 134.147 115.303 135.047 115.303C135.731 115.303 136.383 115.455 137.004 115.759C137.624 116.05 138.118 116.443 138.486 116.937V111.94H141.184V126H138.486V124.442C138.156 124.961 137.694 125.379 137.099 125.696C136.503 126.013 135.813 126.171 135.028 126.171C134.141 126.171 133.33 125.943 132.596 125.487C131.861 125.031 131.278 124.391 130.848 123.568C130.43 122.732 130.221 121.776 130.221 120.699ZM138.505 120.737C138.505 120.091 138.378 119.54 138.125 119.084C137.871 118.615 137.529 118.261 137.099 118.02C136.668 117.767 136.206 117.64 135.712 117.64C135.218 117.64 134.762 117.76 134.344 118.001C133.926 118.242 133.584 118.596 133.318 119.065C133.064 119.521 132.938 120.066 132.938 120.699C132.938 121.332 133.064 121.89 133.318 122.371C133.584 122.84 133.926 123.201 134.344 123.454C134.774 123.707 135.23 123.834 135.712 123.834C136.206 123.834 136.668 123.714 137.099 123.473C137.529 123.22 137.871 122.865 138.125 122.409C138.378 121.94 138.505 121.383 138.505 120.737Z" fill="white"/>
<path d="M67.856 201.742H72.004V203H66.309V191.151H67.856V201.742ZM77.7099 203.153C76.8372 203.153 76.0439 202.955 75.3299 202.558C74.6272 202.161 74.0719 201.6 73.6639 200.875C73.2672 200.138 73.0689 199.288 73.0689 198.325C73.0689 197.373 73.2729 196.534 73.6809 195.809C74.1002 195.072 74.6669 194.511 75.3809 194.126C76.0949 193.729 76.8939 193.531 77.7779 193.531C78.6619 193.531 79.4609 193.729 80.1749 194.126C80.8889 194.511 81.4499 195.067 81.8579 195.792C82.2772 196.517 82.4869 197.362 82.4869 198.325C82.4869 199.288 82.2716 200.138 81.8409 200.875C81.4216 201.6 80.8492 202.161 80.1239 202.558C79.3986 202.955 78.5939 203.153 77.7099 203.153ZM77.7099 201.793C78.2652 201.793 78.7866 201.663 79.2739 201.402C79.7612 201.141 80.1522 200.75 80.4469 200.229C80.7529 199.708 80.9059 199.073 80.9059 198.325C80.9059 197.577 80.7586 196.942 80.4639 196.421C80.1692 195.9 79.7839 195.514 79.3079 195.265C78.8319 195.004 78.3162 194.874 77.7609 194.874C77.1942 194.874 76.6729 195.004 76.1969 195.265C75.7322 195.514 75.3582 195.9 75.0749 196.421C74.7916 196.942 74.6499 197.577 74.6499 198.325C74.6499 199.084 74.7859 199.725 75.0579 200.246C75.3412 200.767 75.7152 201.158 76.1799 201.419C76.6446 201.668 77.1546 201.793 77.7099 201.793ZM86.0679 195.197C86.3399 194.664 86.7252 194.251 87.2239 193.956C87.7339 193.661 88.3516 193.514 89.0769 193.514V195.112H88.6689C86.9349 195.112 86.0679 196.053 86.0679 197.934V203H84.5209V193.684H86.0679V195.197ZM99.3627 197.985C99.3627 198.28 99.3457 198.591 99.3117 198.92H91.8657C91.9224 199.838 92.234 200.558 92.8007 201.079C93.3787 201.589 94.0757 201.844 94.8917 201.844C95.5604 201.844 96.1157 201.691 96.5577 201.385C97.011 201.068 97.3284 200.648 97.5097 200.127H99.1757C98.9264 201.022 98.4277 201.753 97.6797 202.32C96.9317 202.875 96.0024 203.153 94.8917 203.153C94.0077 203.153 93.2144 202.955 92.5117 202.558C91.8204 202.161 91.2764 201.6 90.8797 200.875C90.483 200.138 90.2847 199.288 90.2847 198.325C90.2847 197.362 90.4774 196.517 90.8627 195.792C91.248 195.067 91.7864 194.511 92.4777 194.126C93.1804 193.729 93.985 193.531 94.8917 193.531C95.7757 193.531 96.5577 193.724 97.2377 194.109C97.9177 194.494 98.439 195.027 98.8017 195.707C99.1757 196.376 99.3627 197.135 99.3627 197.985ZM97.7647 197.662C97.7647 197.073 97.6344 196.568 97.3737 196.149C97.113 195.718 96.756 195.395 96.3027 195.18C95.8607 194.953 95.3677 194.84 94.8237 194.84C94.0417 194.84 93.373 195.089 92.8177 195.588C92.2737 196.087 91.962 196.778 91.8827 197.662H97.7647ZM112.608 193.514C113.333 193.514 113.979 193.667 114.546 193.973C115.112 194.268 115.56 194.715 115.889 195.316C116.217 195.917 116.382 196.648 116.382 197.509V203H114.852V197.73C114.852 196.801 114.619 196.092 114.155 195.605C113.701 195.106 113.084 194.857 112.302 194.857C111.497 194.857 110.857 195.118 110.381 195.639C109.905 196.149 109.667 196.891 109.667 197.866V203H108.137V197.73C108.137 196.801 107.904 196.092 107.44 195.605C106.986 195.106 106.369 194.857 105.587 194.857C104.782 194.857 104.142 195.118 103.666 195.639C103.19 196.149 102.952 196.891 102.952 197.866V203H101.405V193.684H102.952V195.027C103.258 194.54 103.666 194.166 104.176 193.905C104.697 193.644 105.269 193.514 105.893 193.514C106.675 193.514 107.366 193.69 107.967 194.041C108.567 194.392 109.015 194.908 109.31 195.588C109.57 194.931 110.001 194.421 110.602 194.058C111.202 193.695 111.871 193.514 112.608 193.514Z" fill="white"/>
<path d="M247.856 201.742H252.004V203H246.309V191.151H247.856V201.742ZM257.71 203.153C256.837 203.153 256.044 202.955 255.33 202.558C254.627 202.161 254.072 201.6 253.664 200.875C253.267 200.138 253.069 199.288 253.069 198.325C253.069 197.373 253.273 196.534 253.681 195.809C254.1 195.072 254.667 194.511 255.381 194.126C256.095 193.729 256.894 193.531 257.778 193.531C258.662 193.531 259.461 193.729 260.175 194.126C260.889 194.511 261.45 195.067 261.858 195.792C262.277 196.517 262.487 197.362 262.487 198.325C262.487 199.288 262.272 200.138 261.841 200.875C261.422 201.6 260.849 202.161 260.124 202.558C259.399 202.955 258.594 203.153 257.71 203.153ZM257.71 201.793C258.265 201.793 258.787 201.663 259.274 201.402C259.761 201.141 260.152 200.75 260.447 200.229C260.753 199.708 260.906 199.073 260.906 198.325C260.906 197.577 260.759 196.942 260.464 196.421C260.169 195.9 259.784 195.514 259.308 195.265C258.832 195.004 258.316 194.874 257.761 194.874C257.194 194.874 256.673 195.004 256.197 195.265C255.732 195.514 255.358 195.9 255.075 196.421C254.792 196.942 254.65 197.577 254.65 198.325C254.65 199.084 254.786 199.725 255.058 200.246C255.341 200.767 255.715 201.158 256.18 201.419C256.645 201.668 257.155 201.793 257.71 201.793ZM266.068 195.197C266.34 194.664 266.725 194.251 267.224 193.956C267.734 193.661 268.352 193.514 269.077 193.514V195.112H268.669C266.935 195.112 266.068 196.053 266.068 197.934V203H264.521V193.684H266.068V195.197ZM279.363 197.985C279.363 198.28 279.346 198.591 279.312 198.92H271.866C271.922 199.838 272.234 200.558 272.801 201.079C273.379 201.589 274.076 201.844 274.892 201.844C275.56 201.844 276.116 201.691 276.558 201.385C277.011 201.068 277.328 200.648 277.51 200.127H279.176C278.926 201.022 278.428 201.753 277.68 202.32C276.932 202.875 276.002 203.153 274.892 203.153C274.008 203.153 273.214 202.955 272.512 202.558C271.82 202.161 271.276 201.6 270.88 200.875C270.483 200.138 270.285 199.288 270.285 198.325C270.285 197.362 270.477 196.517 270.863 195.792C271.248 195.067 271.786 194.511 272.478 194.126C273.18 193.729 273.985 193.531 274.892 193.531C275.776 193.531 276.558 193.724 277.238 194.109C277.918 194.494 278.439 195.027 278.802 195.707C279.176 196.376 279.363 197.135 279.363 197.985ZM277.765 197.662C277.765 197.073 277.634 196.568 277.374 196.149C277.113 195.718 276.756 195.395 276.303 195.18C275.861 194.953 275.368 194.84 274.824 194.84C274.042 194.84 273.373 195.089 272.818 195.588C272.274 196.087 271.962 196.778 271.883 197.662H277.765ZM292.608 193.514C293.333 193.514 293.979 193.667 294.546 193.973C295.112 194.268 295.56 194.715 295.889 195.316C296.217 195.917 296.382 196.648 296.382 197.509V203H294.852V197.73C294.852 196.801 294.619 196.092 294.155 195.605C293.701 195.106 293.084 194.857 292.302 194.857C291.497 194.857 290.857 195.118 290.381 195.639C289.905 196.149 289.667 196.891 289.667 197.866V203H288.137V197.73C288.137 196.801 287.904 196.092 287.44 195.605C286.986 195.106 286.369 194.857 285.587 194.857C284.782 194.857 284.142 195.118 283.666 195.639C283.19 196.149 282.952 196.891 282.952 197.866V203H281.405V193.684H282.952V195.027C283.258 194.54 283.666 194.166 284.176 193.905C284.697 193.644 285.269 193.514 285.893 193.514C286.675 193.514 287.366 193.69 287.967 194.041C288.567 194.392 289.015 194.908 289.31 195.588C289.57 194.931 290.001 194.421 290.602 194.058C291.202 193.695 291.871 193.514 292.608 193.514Z" fill="white"/>
<path d="M426.856 201.742H431.004V203H425.309V191.151H426.856V201.742ZM436.71 203.153C435.837 203.153 435.044 202.955 434.33 202.558C433.627 202.161 433.072 201.6 432.664 200.875C432.267 200.138 432.069 199.288 432.069 198.325C432.069 197.373 432.273 196.534 432.681 195.809C433.1 195.072 433.667 194.511 434.381 194.126C435.095 193.729 435.894 193.531 436.778 193.531C437.662 193.531 438.461 193.729 439.175 194.126C439.889 194.511 440.45 195.067 440.858 195.792C441.277 196.517 441.487 197.362 441.487 198.325C441.487 199.288 441.272 200.138 440.841 200.875C440.422 201.6 439.849 202.161 439.124 202.558C438.399 202.955 437.594 203.153 436.71 203.153ZM436.71 201.793C437.265 201.793 437.787 201.663 438.274 201.402C438.761 201.141 439.152 200.75 439.447 200.229C439.753 199.708 439.906 199.073 439.906 198.325C439.906 197.577 439.759 196.942 439.464 196.421C439.169 195.9 438.784 195.514 438.308 195.265C437.832 195.004 437.316 194.874 436.761 194.874C436.194 194.874 435.673 195.004 435.197 195.265C434.732 195.514 434.358 195.9 434.075 196.421C433.792 196.942 433.65 197.577 433.65 198.325C433.65 199.084 433.786 199.725 434.058 200.246C434.341 200.767 434.715 201.158 435.18 201.419C435.645 201.668 436.155 201.793 436.71 201.793ZM445.068 195.197C445.34 194.664 445.725 194.251 446.224 193.956C446.734 193.661 447.352 193.514 448.077 193.514V195.112H447.669C445.935 195.112 445.068 196.053 445.068 197.934V203H443.521V193.684H445.068V195.197ZM458.363 197.985C458.363 198.28 458.346 198.591 458.312 198.92H450.866C450.922 199.838 451.234 200.558 451.801 201.079C452.379 201.589 453.076 201.844 453.892 201.844C454.56 201.844 455.116 201.691 455.558 201.385C456.011 201.068 456.328 200.648 456.51 200.127H458.176C457.926 201.022 457.428 201.753 456.68 202.32C455.932 202.875 455.002 203.153 453.892 203.153C453.008 203.153 452.214 202.955 451.512 202.558C450.82 202.161 450.276 201.6 449.88 200.875C449.483 200.138 449.285 199.288 449.285 198.325C449.285 197.362 449.477 196.517 449.863 195.792C450.248 195.067 450.786 194.511 451.478 194.126C452.18 193.729 452.985 193.531 453.892 193.531C454.776 193.531 455.558 193.724 456.238 194.109C456.918 194.494 457.439 195.027 457.802 195.707C458.176 196.376 458.363 197.135 458.363 197.985ZM456.765 197.662C456.765 197.073 456.634 196.568 456.374 196.149C456.113 195.718 455.756 195.395 455.303 195.18C454.861 194.953 454.368 194.84 453.824 194.84C453.042 194.84 452.373 195.089 451.818 195.588C451.274 196.087 450.962 196.778 450.883 197.662H456.765ZM471.608 193.514C472.333 193.514 472.979 193.667 473.546 193.973C474.112 194.268 474.56 194.715 474.889 195.316C475.217 195.917 475.382 196.648 475.382 197.509V203H473.852V197.73C473.852 196.801 473.619 196.092 473.155 195.605C472.701 195.106 472.084 194.857 471.302 194.857C470.497 194.857 469.857 195.118 469.381 195.639C468.905 196.149 468.667 196.891 468.667 197.866V203H467.137V197.73C467.137 196.801 466.904 196.092 466.44 195.605C465.986 195.106 465.369 194.857 464.587 194.857C463.782 194.857 463.142 195.118 462.666 195.639C462.19 196.149 461.952 196.891 461.952 197.866V203H460.405V193.684H461.952V195.027C462.258 194.54 462.666 194.166 463.176 193.905C463.697 193.644 464.269 193.514 464.893 193.514C465.675 193.514 466.366 193.69 466.967 194.041C467.567 194.392 468.015 194.908 468.31 195.588C468.57 194.931 469.001 194.421 469.602 194.058C470.202 193.695 470.871 193.514 471.608 193.514Z" fill="white"/>
<path d="M67.856 260.742H72.004V262H66.309V250.151H67.856V260.742ZM77.7099 262.153C76.8372 262.153 76.0439 261.955 75.3299 261.558C74.6272 261.161 74.0719 260.6 73.6639 259.875C73.2672 259.138 73.0689 258.288 73.0689 257.325C73.0689 256.373 73.2729 255.534 73.6809 254.809C74.1002 254.072 74.6669 253.511 75.3809 253.126C76.0949 252.729 76.8939 252.531 77.7779 252.531C78.6619 252.531 79.4609 252.729 80.1749 253.126C80.8889 253.511 81.4499 254.067 81.8579 254.792C82.2772 255.517 82.4869 256.362 82.4869 257.325C82.4869 258.288 82.2716 259.138 81.8409 259.875C81.4216 260.6 80.8492 261.161 80.1239 261.558C79.3986 261.955 78.5939 262.153 77.7099 262.153ZM77.7099 260.793C78.2652 260.793 78.7866 260.663 79.2739 260.402C79.7612 260.141 80.1522 259.75 80.4469 259.229C80.7529 258.708 80.9059 258.073 80.9059 257.325C80.9059 256.577 80.7586 255.942 80.4639 255.421C80.1692 254.9 79.7839 254.514 79.3079 254.265C78.8319 254.004 78.3162 253.874 77.7609 253.874C77.1942 253.874 76.6729 254.004 76.1969 254.265C75.7322 254.514 75.3582 254.9 75.0749 255.421C74.7916 255.942 74.6499 256.577 74.6499 257.325C74.6499 258.084 74.7859 258.725 75.0579 259.246C75.3412 259.767 75.7152 260.158 76.1799 260.419C76.6446 260.668 77.1546 260.793 77.7099 260.793ZM86.0679 254.197C86.3399 253.664 86.7252 253.251 87.2239 252.956C87.7339 252.661 88.3516 252.514 89.0769 252.514V254.112H88.6689C86.9349 254.112 86.0679 255.053 86.0679 256.934V262H84.5209V252.684H86.0679V254.197ZM99.3627 256.985C99.3627 257.28 99.3457 257.591 99.3117 257.92H91.8657C91.9224 258.838 92.234 259.558 92.8007 260.079C93.3787 260.589 94.0757 260.844 94.8917 260.844C95.5604 260.844 96.1157 260.691 96.5577 260.385C97.011 260.068 97.3284 259.648 97.5097 259.127H99.1757C98.9264 260.022 98.4277 260.753 97.6797 261.32C96.9317 261.875 96.0024 262.153 94.8917 262.153C94.0077 262.153 93.2144 261.955 92.5117 261.558C91.8204 261.161 91.2764 260.6 90.8797 259.875C90.483 259.138 90.2847 258.288 90.2847 257.325C90.2847 256.362 90.4774 255.517 90.8627 254.792C91.248 254.067 91.7864 253.511 92.4777 253.126C93.1804 252.729 93.985 252.531 94.8917 252.531C95.7757 252.531 96.5577 252.724 97.2377 253.109C97.9177 253.494 98.439 254.027 98.8017 254.707C99.1757 255.376 99.3627 256.135 99.3627 256.985ZM97.7647 256.662C97.7647 256.073 97.6344 255.568 97.3737 255.149C97.113 254.718 96.756 254.395 96.3027 254.18C95.8607 253.953 95.3677 253.84 94.8237 253.84C94.0417 253.84 93.373 254.089 92.8177 254.588C92.2737 255.087 91.962 255.778 91.8827 256.662H97.7647ZM112.608 252.514C113.333 252.514 113.979 252.667 114.546 252.973C115.112 253.268 115.56 253.715 115.889 254.316C116.217 254.917 116.382 255.648 116.382 256.509V262H114.852V256.73C114.852 255.801 114.619 255.092 114.155 254.605C113.701 254.106 113.084 253.857 112.302 253.857C111.497 253.857 110.857 254.118 110.381 254.639C109.905 255.149 109.667 255.891 109.667 256.866V262H108.137V256.73C108.137 255.801 107.904 255.092 107.44 254.605C106.986 254.106 106.369 253.857 105.587 253.857C104.782 253.857 104.142 254.118 103.666 254.639C103.19 255.149 102.952 255.891 102.952 256.866V262H101.405V252.684H102.952V254.027C103.258 253.54 103.666 253.166 104.176 252.905C104.697 252.644 105.269 252.514 105.893 252.514C106.675 252.514 107.366 252.69 107.967 253.041C108.567 253.392 109.015 253.908 109.31 254.588C109.57 253.931 110.001 253.421 110.602 253.058C111.202 252.695 111.871 252.514 112.608 252.514Z" fill="white"/>
<path d="M247.856 260.742H252.004V262H246.309V250.151H247.856V260.742ZM257.71 262.153C256.837 262.153 256.044 261.955 255.33 261.558C254.627 261.161 254.072 260.6 253.664 259.875C253.267 259.138 253.069 258.288 253.069 257.325C253.069 256.373 253.273 255.534 253.681 254.809C254.1 254.072 254.667 253.511 255.381 253.126C256.095 252.729 256.894 252.531 257.778 252.531C258.662 252.531 259.461 252.729 260.175 253.126C260.889 253.511 261.45 254.067 261.858 254.792C262.277 255.517 262.487 256.362 262.487 257.325C262.487 258.288 262.272 259.138 261.841 259.875C261.422 260.6 260.849 261.161 260.124 261.558C259.399 261.955 258.594 262.153 257.71 262.153ZM257.71 260.793C258.265 260.793 258.787 260.663 259.274 260.402C259.761 260.141 260.152 259.75 260.447 259.229C260.753 258.708 260.906 258.073 260.906 257.325C260.906 256.577 260.759 255.942 260.464 255.421C260.169 254.9 259.784 254.514 259.308 254.265C258.832 254.004 258.316 253.874 257.761 253.874C257.194 253.874 256.673 254.004 256.197 254.265C255.732 254.514 255.358 254.9 255.075 255.421C254.792 255.942 254.65 256.577 254.65 257.325C254.65 258.084 254.786 258.725 255.058 259.246C255.341 259.767 255.715 260.158 256.18 260.419C256.645 260.668 257.155 260.793 257.71 260.793ZM266.068 254.197C266.34 253.664 266.725 253.251 267.224 252.956C267.734 252.661 268.352 252.514 269.077 252.514V254.112H268.669C266.935 254.112 266.068 255.053 266.068 256.934V262H264.521V252.684H266.068V254.197ZM279.363 256.985C279.363 257.28 279.346 257.591 279.312 257.92H271.866C271.922 258.838 272.234 259.558 272.801 260.079C273.379 260.589 274.076 260.844 274.892 260.844C275.56 260.844 276.116 260.691 276.558 260.385C277.011 260.068 277.328 259.648 277.51 259.127H279.176C278.926 260.022 278.428 260.753 277.68 261.32C276.932 261.875 276.002 262.153 274.892 262.153C274.008 262.153 273.214 261.955 272.512 261.558C271.82 261.161 271.276 260.6 270.88 259.875C270.483 259.138 270.285 258.288 270.285 257.325C270.285 256.362 270.477 255.517 270.863 254.792C271.248 254.067 271.786 253.511 272.478 253.126C273.18 252.729 273.985 252.531 274.892 252.531C275.776 252.531 276.558 252.724 277.238 253.109C277.918 253.494 278.439 254.027 278.802 254.707C279.176 255.376 279.363 256.135 279.363 256.985ZM277.765 256.662C277.765 256.073 277.634 255.568 277.374 255.149C277.113 254.718 276.756 254.395 276.303 254.18C275.861 253.953 275.368 253.84 274.824 253.84C274.042 253.84 273.373 254.089 272.818 254.588C272.274 255.087 271.962 255.778 271.883 256.662H277.765ZM292.608 252.514C293.333 252.514 293.979 252.667 294.546 252.973C295.112 253.268 295.56 253.715 295.889 254.316C296.217 254.917 296.382 255.648 296.382 256.509V262H294.852V256.73C294.852 255.801 294.619 255.092 294.155 254.605C293.701 254.106 293.084 253.857 292.302 253.857C291.497 253.857 290.857 254.118 290.381 254.639C289.905 255.149 289.667 255.891 289.667 256.866V262H288.137V256.73C288.137 255.801 287.904 255.092 287.44 254.605C286.986 254.106 286.369 253.857 285.587 253.857C284.782 253.857 284.142 254.118 283.666 254.639C283.19 255.149 282.952 255.891 282.952 256.866V262H281.405V252.684H282.952V254.027C283.258 253.54 283.666 253.166 284.176 252.905C284.697 252.644 285.269 252.514 285.893 252.514C286.675 252.514 287.366 252.69 287.967 253.041C288.567 253.392 289.015 253.908 289.31 254.588C289.57 253.931 290.001 253.421 290.602 253.058C291.202 252.695 291.871 252.514 292.608 252.514Z" fill="white"/>
<path d="M426.856 260.742H431.004V262H425.309V250.151H426.856V260.742ZM436.71 262.153C435.837 262.153 435.044 261.955 434.33 261.558C433.627 261.161 433.072 260.6 432.664 259.875C432.267 259.138 432.069 258.288 432.069 257.325C432.069 256.373 432.273 255.534 432.681 254.809C433.1 254.072 433.667 253.511 434.381 253.126C435.095 252.729 435.894 252.531 436.778 252.531C437.662 252.531 438.461 252.729 439.175 253.126C439.889 253.511 440.45 254.067 440.858 254.792C441.277 255.517 441.487 256.362 441.487 257.325C441.487 258.288 441.272 259.138 440.841 259.875C440.422 260.6 439.849 261.161 439.124 261.558C438.399 261.955 437.594 262.153 436.71 262.153ZM436.71 260.793C437.265 260.793 437.787 260.663 438.274 260.402C438.761 260.141 439.152 259.75 439.447 259.229C439.753 258.708 439.906 258.073 439.906 257.325C439.906 256.577 439.759 255.942 439.464 255.421C439.169 254.9 438.784 254.514 438.308 254.265C437.832 254.004 437.316 253.874 436.761 253.874C436.194 253.874 435.673 254.004 435.197 254.265C434.732 254.514 434.358 254.9 434.075 255.421C433.792 255.942 433.65 256.577 433.65 257.325C433.65 258.084 433.786 258.725 434.058 259.246C434.341 259.767 434.715 260.158 435.18 260.419C435.645 260.668 436.155 260.793 436.71 260.793ZM445.068 254.197C445.34 253.664 445.725 253.251 446.224 252.956C446.734 252.661 447.352 252.514 448.077 252.514V254.112H447.669C445.935 254.112 445.068 255.053 445.068 256.934V262H443.521V252.684H445.068V254.197ZM458.363 256.985C458.363 257.28 458.346 257.591 458.312 257.92H450.866C450.922 258.838 451.234 259.558 451.801 260.079C452.379 260.589 453.076 260.844 453.892 260.844C454.56 260.844 455.116 260.691 455.558 260.385C456.011 260.068 456.328 259.648 456.51 259.127H458.176C457.926 260.022 457.428 260.753 456.68 261.32C455.932 261.875 455.002 262.153 453.892 262.153C453.008 262.153 452.214 261.955 451.512 261.558C450.82 261.161 450.276 260.6 449.88 259.875C449.483 259.138 449.285 258.288 449.285 257.325C449.285 256.362 449.477 255.517 449.863 254.792C450.248 254.067 450.786 253.511 451.478 253.126C452.18 252.729 452.985 252.531 453.892 252.531C454.776 252.531 455.558 252.724 456.238 253.109C456.918 253.494 457.439 254.027 457.802 254.707C458.176 255.376 458.363 256.135 458.363 256.985ZM456.765 256.662C456.765 256.073 456.634 255.568 456.374 255.149C456.113 254.718 455.756 254.395 455.303 254.18C454.861 253.953 454.368 253.84 453.824 253.84C453.042 253.84 452.373 254.089 451.818 254.588C451.274 255.087 450.962 255.778 450.883 256.662H456.765ZM471.608 252.514C472.333 252.514 472.979 252.667 473.546 252.973C474.112 253.268 474.56 253.715 474.889 254.316C475.217 254.917 475.382 255.648 475.382 256.509V262H473.852V256.73C473.852 255.801 473.619 255.092 473.155 254.605C472.701 254.106 472.084 253.857 471.302 253.857C470.497 253.857 469.857 254.118 469.381 254.639C468.905 255.149 468.667 255.891 468.667 256.866V262H467.137V256.73C467.137 255.801 466.904 255.092 466.44 254.605C465.986 254.106 465.369 253.857 464.587 253.857C463.782 253.857 463.142 254.118 462.666 254.639C462.19 255.149 461.952 255.891 461.952 256.866V262H460.405V252.684H461.952V254.027C462.258 253.54 462.666 253.166 463.176 252.905C463.697 252.644 464.269 252.514 464.893 252.514C465.675 252.514 466.366 252.69 466.967 253.041C467.567 253.392 468.015 253.908 468.31 254.588C468.57 253.931 469.001 253.421 469.602 253.058C470.202 252.695 470.871 252.514 471.608 252.514Z" fill="white"/>
<path d="M67.856 319.742H72.004V321H66.309V309.151H67.856V319.742ZM77.7099 321.153C76.8372 321.153 76.0439 320.955 75.3299 320.558C74.6272 320.161 74.0719 319.6 73.6639 318.875C73.2672 318.138 73.0689 317.288 73.0689 316.325C73.0689 315.373 73.2729 314.534 73.6809 313.809C74.1002 313.072 74.6669 312.511 75.3809 312.126C76.0949 311.729 76.8939 311.531 77.7779 311.531C78.6619 311.531 79.4609 311.729 80.1749 312.126C80.8889 312.511 81.4499 313.067 81.8579 313.792C82.2772 314.517 82.4869 315.362 82.4869 316.325C82.4869 317.288 82.2716 318.138 81.8409 318.875C81.4216 319.6 80.8492 320.161 80.1239 320.558C79.3986 320.955 78.5939 321.153 77.7099 321.153ZM77.7099 319.793C78.2652 319.793 78.7866 319.663 79.2739 319.402C79.7612 319.141 80.1522 318.75 80.4469 318.229C80.7529 317.708 80.9059 317.073 80.9059 316.325C80.9059 315.577 80.7586 314.942 80.4639 314.421C80.1692 313.9 79.7839 313.514 79.3079 313.265C78.8319 313.004 78.3162 312.874 77.7609 312.874C77.1942 312.874 76.6729 313.004 76.1969 313.265C75.7322 313.514 75.3582 313.9 75.0749 314.421C74.7916 314.942 74.6499 315.577 74.6499 316.325C74.6499 317.084 74.7859 317.725 75.0579 318.246C75.3412 318.767 75.7152 319.158 76.1799 319.419C76.6446 319.668 77.1546 319.793 77.7099 319.793ZM86.0679 313.197C86.3399 312.664 86.7252 312.251 87.2239 311.956C87.7339 311.661 88.3516 311.514 89.0769 311.514V313.112H88.6689C86.9349 313.112 86.0679 314.053 86.0679 315.934V321H84.5209V311.684H86.0679V313.197ZM99.3627 315.985C99.3627 316.28 99.3457 316.591 99.3117 316.92H91.8657C91.9224 317.838 92.234 318.558 92.8007 319.079C93.3787 319.589 94.0757 319.844 94.8917 319.844C95.5604 319.844 96.1157 319.691 96.5577 319.385C97.011 319.068 97.3284 318.648 97.5097 318.127H99.1757C98.9264 319.022 98.4277 319.753 97.6797 320.32C96.9317 320.875 96.0024 321.153 94.8917 321.153C94.0077 321.153 93.2144 320.955 92.5117 320.558C91.8204 320.161 91.2764 319.6 90.8797 318.875C90.483 318.138 90.2847 317.288 90.2847 316.325C90.2847 315.362 90.4774 314.517 90.8627 313.792C91.248 313.067 91.7864 312.511 92.4777 312.126C93.1804 311.729 93.985 311.531 94.8917 311.531C95.7757 311.531 96.5577 311.724 97.2377 312.109C97.9177 312.494 98.439 313.027 98.8017 313.707C99.1757 314.376 99.3627 315.135 99.3627 315.985ZM97.7647 315.662C97.7647 315.073 97.6344 314.568 97.3737 314.149C97.113 313.718 96.756 313.395 96.3027 313.18C95.8607 312.953 95.3677 312.84 94.8237 312.84C94.0417 312.84 93.373 313.089 92.8177 313.588C92.2737 314.087 91.962 314.778 91.8827 315.662H97.7647ZM112.608 311.514C113.333 311.514 113.979 311.667 114.546 311.973C115.112 312.268 115.56 312.715 115.889 313.316C116.217 313.917 116.382 314.648 116.382 315.509V321H114.852V315.73C114.852 314.801 114.619 314.092 114.155 313.605C113.701 313.106 113.084 312.857 112.302 312.857C111.497 312.857 110.857 313.118 110.381 313.639C109.905 314.149 109.667 314.891 109.667 315.866V321H108.137V315.73C108.137 314.801 107.904 314.092 107.44 313.605C106.986 313.106 106.369 312.857 105.587 312.857C104.782 312.857 104.142 313.118 103.666 313.639C103.19 314.149 102.952 314.891 102.952 315.866V321H101.405V311.684H102.952V313.027C103.258 312.54 103.666 312.166 104.176 311.905C104.697 311.644 105.269 311.514 105.893 311.514C106.675 311.514 107.366 311.69 107.967 312.041C108.567 312.392 109.015 312.908 109.31 313.588C109.57 312.931 110.001 312.421 110.602 312.058C111.202 311.695 111.871 311.514 112.608 311.514Z" fill="white"/>
<path d="M247.856 319.742H252.004V321H246.309V309.151H247.856V319.742ZM257.71 321.153C256.837 321.153 256.044 320.955 255.33 320.558C254.627 320.161 254.072 319.6 253.664 318.875C253.267 318.138 253.069 317.288 253.069 316.325C253.069 315.373 253.273 314.534 253.681 313.809C254.1 313.072 254.667 312.511 255.381 312.126C256.095 311.729 256.894 311.531 257.778 311.531C258.662 311.531 259.461 311.729 260.175 312.126C260.889 312.511 261.45 313.067 261.858 313.792C262.277 314.517 262.487 315.362 262.487 316.325C262.487 317.288 262.272 318.138 261.841 318.875C261.422 319.6 260.849 320.161 260.124 320.558C259.399 320.955 258.594 321.153 257.71 321.153ZM257.71 319.793C258.265 319.793 258.787 319.663 259.274 319.402C259.761 319.141 260.152 318.75 260.447 318.229C260.753 317.708 260.906 317.073 260.906 316.325C260.906 315.577 260.759 314.942 260.464 314.421C260.169 313.9 259.784 313.514 259.308 313.265C258.832 313.004 258.316 312.874 257.761 312.874C257.194 312.874 256.673 313.004 256.197 313.265C255.732 313.514 255.358 313.9 255.075 314.421C254.792 314.942 254.65 315.577 254.65 316.325C254.65 317.084 254.786 317.725 255.058 318.246C255.341 318.767 255.715 319.158 256.18 319.419C256.645 319.668 257.155 319.793 257.71 319.793ZM266.068 313.197C266.34 312.664 266.725 312.251 267.224 311.956C267.734 311.661 268.352 311.514 269.077 311.514V313.112H268.669C266.935 313.112 266.068 314.053 266.068 315.934V321H264.521V311.684H266.068V313.197ZM279.363 315.985C279.363 316.28 279.346 316.591 279.312 316.92H271.866C271.922 317.838 272.234 318.558 272.801 319.079C273.379 319.589 274.076 319.844 274.892 319.844C275.56 319.844 276.116 319.691 276.558 319.385C277.011 319.068 277.328 318.648 277.51 318.127H279.176C278.926 319.022 278.428 319.753 277.68 320.32C276.932 320.875 276.002 321.153 274.892 321.153C274.008 321.153 273.214 320.955 272.512 320.558C271.82 320.161 271.276 319.6 270.88 318.875C270.483 318.138 270.285 317.288 270.285 316.325C270.285 315.362 270.477 314.517 270.863 313.792C271.248 313.067 271.786 312.511 272.478 312.126C273.18 311.729 273.985 311.531 274.892 311.531C275.776 311.531 276.558 311.724 277.238 312.109C277.918 312.494 278.439 313.027 278.802 313.707C279.176 314.376 279.363 315.135 279.363 315.985ZM277.765 315.662C277.765 315.073 277.634 314.568 277.374 314.149C277.113 313.718 276.756 313.395 276.303 313.18C275.861 312.953 275.368 312.84 274.824 312.84C274.042 312.84 273.373 313.089 272.818 313.588C272.274 314.087 271.962 314.778 271.883 315.662H277.765ZM292.608 311.514C293.333 311.514 293.979 311.667 294.546 311.973C295.112 312.268 295.56 312.715 295.889 313.316C296.217 313.917 296.382 314.648 296.382 315.509V321H294.852V315.73C294.852 314.801 294.619 314.092 294.155 313.605C293.701 313.106 293.084 312.857 292.302 312.857C291.497 312.857 290.857 313.118 290.381 313.639C289.905 314.149 289.667 314.891 289.667 315.866V321H288.137V315.73C288.137 314.801 287.904 314.092 287.44 313.605C286.986 313.106 286.369 312.857 285.587 312.857C284.782 312.857 284.142 313.118 283.666 313.639C283.19 314.149 282.952 314.891 282.952 315.866V321H281.405V311.684H282.952V313.027C283.258 312.54 283.666 312.166 284.176 311.905C284.697 311.644 285.269 311.514 285.893 311.514C286.675 311.514 287.366 311.69 287.967 312.041C288.567 312.392 289.015 312.908 289.31 313.588C289.57 312.931 290.001 312.421 290.602 312.058C291.202 311.695 291.871 311.514 292.608 311.514Z" fill="white"/>
<path d="M426.856 319.742H431.004V321H425.309V309.151H426.856V319.742ZM436.71 321.153C435.837 321.153 435.044 320.955 434.33 320.558C433.627 320.161 433.072 319.6 432.664 318.875C432.267 318.138 432.069 317.288 432.069 316.325C432.069 315.373 432.273 314.534 432.681 313.809C433.1 313.072 433.667 312.511 434.381 312.126C435.095 311.729 435.894 311.531 436.778 311.531C437.662 311.531 438.461 311.729 439.175 312.126C439.889 312.511 440.45 313.067 440.858 313.792C441.277 314.517 441.487 315.362 441.487 316.325C441.487 317.288 441.272 318.138 440.841 318.875C440.422 319.6 439.849 320.161 439.124 320.558C438.399 320.955 437.594 321.153 436.71 321.153ZM436.71 319.793C437.265 319.793 437.787 319.663 438.274 319.402C438.761 319.141 439.152 318.75 439.447 318.229C439.753 317.708 439.906 317.073 439.906 316.325C439.906 315.577 439.759 314.942 439.464 314.421C439.169 313.9 438.784 313.514 438.308 313.265C437.832 313.004 437.316 312.874 436.761 312.874C436.194 312.874 435.673 313.004 435.197 313.265C434.732 313.514 434.358 313.9 434.075 314.421C433.792 314.942 433.65 315.577 433.65 316.325C433.65 317.084 433.786 317.725 434.058 318.246C434.341 318.767 434.715 319.158 435.18 319.419C435.645 319.668 436.155 319.793 436.71 319.793ZM445.068 313.197C445.34 312.664 445.725 312.251 446.224 311.956C446.734 311.661 447.352 311.514 448.077 311.514V313.112H447.669C445.935 313.112 445.068 314.053 445.068 315.934V321H443.521V311.684H445.068V313.197ZM458.363 315.985C458.363 316.28 458.346 316.591 458.312 316.92H450.866C450.922 317.838 451.234 318.558 451.801 319.079C452.379 319.589 453.076 319.844 453.892 319.844C454.56 319.844 455.116 319.691 455.558 319.385C456.011 319.068 456.328 318.648 456.51 318.127H458.176C457.926 319.022 457.428 319.753 456.68 320.32C455.932 320.875 455.002 321.153 453.892 321.153C453.008 321.153 452.214 320.955 451.512 320.558C450.82 320.161 450.276 319.6 449.88 318.875C449.483 318.138 449.285 317.288 449.285 316.325C449.285 315.362 449.477 314.517 449.863 313.792C450.248 313.067 450.786 312.511 451.478 312.126C452.18 311.729 452.985 311.531 453.892 311.531C454.776 311.531 455.558 311.724 456.238 312.109C456.918 312.494 457.439 313.027 457.802 313.707C458.176 314.376 458.363 315.135 458.363 315.985ZM456.765 315.662C456.765 315.073 456.634 314.568 456.374 314.149C456.113 313.718 455.756 313.395 455.303 313.18C454.861 312.953 454.368 312.84 453.824 312.84C453.042 312.84 452.373 313.089 451.818 313.588C451.274 314.087 450.962 314.778 450.883 315.662H456.765ZM471.608 311.514C472.333 311.514 472.979 311.667 473.546 311.973C474.112 312.268 474.56 312.715 474.889 313.316C475.217 313.917 475.382 314.648 475.382 315.509V321H473.852V315.73C473.852 314.801 473.619 314.092 473.155 313.605C472.701 313.106 472.084 312.857 471.302 312.857C470.497 312.857 469.857 313.118 469.381 313.639C468.905 314.149 468.667 314.891 468.667 315.866V321H467.137V315.73C467.137 314.801 466.904 314.092 466.44 313.605C465.986 313.106 465.369 312.857 464.587 312.857C463.782 312.857 463.142 313.118 462.666 313.639C462.19 314.149 461.952 314.891 461.952 315.866V321H460.405V311.684H461.952V313.027C462.258 312.54 462.666 312.166 463.176 311.905C463.697 311.644 464.269 311.514 464.893 311.514C465.675 311.514 466.366 311.69 466.967 312.041C467.567 312.392 468.015 312.908 468.31 313.588C468.57 312.931 469.001 312.421 469.602 312.058C470.202 311.695 470.871 311.514 471.608 311.514Z" fill="white"/>
<path d="M67.856 378.742H72.004V380H66.309V368.151H67.856V378.742ZM77.7099 380.153C76.8372 380.153 76.0439 379.955 75.3299 379.558C74.6272 379.161 74.0719 378.6 73.6639 377.875C73.2672 377.138 73.0689 376.288 73.0689 375.325C73.0689 374.373 73.2729 373.534 73.6809 372.809C74.1002 372.072 74.6669 371.511 75.3809 371.126C76.0949 370.729 76.8939 370.531 77.7779 370.531C78.6619 370.531 79.4609 370.729 80.1749 371.126C80.8889 371.511 81.4499 372.067 81.8579 372.792C82.2772 373.517 82.4869 374.362 82.4869 375.325C82.4869 376.288 82.2716 377.138 81.8409 377.875C81.4216 378.6 80.8492 379.161 80.1239 379.558C79.3986 379.955 78.5939 380.153 77.7099 380.153ZM77.7099 378.793C78.2652 378.793 78.7866 378.663 79.2739 378.402C79.7612 378.141 80.1522 377.75 80.4469 377.229C80.7529 376.708 80.9059 376.073 80.9059 375.325C80.9059 374.577 80.7586 373.942 80.4639 373.421C80.1692 372.9 79.7839 372.514 79.3079 372.265C78.8319 372.004 78.3162 371.874 77.7609 371.874C77.1942 371.874 76.6729 372.004 76.1969 372.265C75.7322 372.514 75.3582 372.9 75.0749 373.421C74.7916 373.942 74.6499 374.577 74.6499 375.325C74.6499 376.084 74.7859 376.725 75.0579 377.246C75.3412 377.767 75.7152 378.158 76.1799 378.419C76.6446 378.668 77.1546 378.793 77.7099 378.793ZM86.0679 372.197C86.3399 371.664 86.7252 371.251 87.2239 370.956C87.7339 370.661 88.3516 370.514 89.0769 370.514V372.112H88.6689C86.9349 372.112 86.0679 373.053 86.0679 374.934V380H84.5209V370.684H86.0679V372.197ZM99.3627 374.985C99.3627 375.28 99.3457 375.591 99.3117 375.92H91.8657C91.9224 376.838 92.234 377.558 92.8007 378.079C93.3787 378.589 94.0757 378.844 94.8917 378.844C95.5604 378.844 96.1157 378.691 96.5577 378.385C97.011 378.068 97.3284 377.648 97.5097 377.127H99.1757C98.9264 378.022 98.4277 378.753 97.6797 379.32C96.9317 379.875 96.0024 380.153 94.8917 380.153C94.0077 380.153 93.2144 379.955 92.5117 379.558C91.8204 379.161 91.2764 378.6 90.8797 377.875C90.483 377.138 90.2847 376.288 90.2847 375.325C90.2847 374.362 90.4774 373.517 90.8627 372.792C91.248 372.067 91.7864 371.511 92.4777 371.126C93.1804 370.729 93.985 370.531 94.8917 370.531C95.7757 370.531 96.5577 370.724 97.2377 371.109C97.9177 371.494 98.439 372.027 98.8017 372.707C99.1757 373.376 99.3627 374.135 99.3627 374.985ZM97.7647 374.662C97.7647 374.073 97.6344 373.568 97.3737 373.149C97.113 372.718 96.756 372.395 96.3027 372.18C95.8607 371.953 95.3677 371.84 94.8237 371.84C94.0417 371.84 93.373 372.089 92.8177 372.588C92.2737 373.087 91.962 373.778 91.8827 374.662H97.7647ZM112.608 370.514C113.333 370.514 113.979 370.667 114.546 370.973C115.112 371.268 115.56 371.715 115.889 372.316C116.217 372.917 116.382 373.648 116.382 374.509V380H114.852V374.73C114.852 373.801 114.619 373.092 114.155 372.605C113.701 372.106 113.084 371.857 112.302 371.857C111.497 371.857 110.857 372.118 110.381 372.639C109.905 373.149 109.667 373.891 109.667 374.866V380H108.137V374.73C108.137 373.801 107.904 373.092 107.44 372.605C106.986 372.106 106.369 371.857 105.587 371.857C104.782 371.857 104.142 372.118 103.666 372.639C103.19 373.149 102.952 373.891 102.952 374.866V380H101.405V370.684H102.952V372.027C103.258 371.54 103.666 371.166 104.176 370.905C104.697 370.644 105.269 370.514 105.893 370.514C106.675 370.514 107.366 370.69 107.967 371.041C108.567 371.392 109.015 371.908 109.31 372.588C109.57 371.931 110.001 371.421 110.602 371.058C111.202 370.695 111.871 370.514 112.608 370.514Z" fill="white"/>
<path d="M247.856 378.742H252.004V380H246.309V368.151H247.856V378.742ZM257.71 380.153C256.837 380.153 256.044 379.955 255.33 379.558C254.627 379.161 254.072 378.6 253.664 377.875C253.267 377.138 253.069 376.288 253.069 375.325C253.069 374.373 253.273 373.534 253.681 372.809C254.1 372.072 254.667 371.511 255.381 371.126C256.095 370.729 256.894 370.531 257.778 370.531C258.662 370.531 259.461 370.729 260.175 371.126C260.889 371.511 261.45 372.067 261.858 372.792C262.277 373.517 262.487 374.362 262.487 375.325C262.487 376.288 262.272 377.138 261.841 377.875C261.422 378.6 260.849 379.161 260.124 379.558C259.399 379.955 258.594 380.153 257.71 380.153ZM257.71 378.793C258.265 378.793 258.787 378.663 259.274 378.402C259.761 378.141 260.152 377.75 260.447 377.229C260.753 376.708 260.906 376.073 260.906 375.325C260.906 374.577 260.759 373.942 260.464 373.421C260.169 372.9 259.784 372.514 259.308 372.265C258.832 372.004 258.316 371.874 257.761 371.874C257.194 371.874 256.673 372.004 256.197 372.265C255.732 372.514 255.358 372.9 255.075 373.421C254.792 373.942 254.65 374.577 254.65 375.325C254.65 376.084 254.786 376.725 255.058 377.246C255.341 377.767 255.715 378.158 256.18 378.419C256.645 378.668 257.155 378.793 257.71 378.793ZM266.068 372.197C266.34 371.664 266.725 371.251 267.224 370.956C267.734 370.661 268.352 370.514 269.077 370.514V372.112H268.669C266.935 372.112 266.068 373.053 266.068 374.934V380H264.521V370.684H266.068V372.197ZM279.363 374.985C279.363 375.28 279.346 375.591 279.312 375.92H271.866C271.922 376.838 272.234 377.558 272.801 378.079C273.379 378.589 274.076 378.844 274.892 378.844C275.56 378.844 276.116 378.691 276.558 378.385C277.011 378.068 277.328 377.648 277.51 377.127H279.176C278.926 378.022 278.428 378.753 277.68 379.32C276.932 379.875 276.002 380.153 274.892 380.153C274.008 380.153 273.214 379.955 272.512 379.558C271.82 379.161 271.276 378.6 270.88 377.875C270.483 377.138 270.285 376.288 270.285 375.325C270.285 374.362 270.477 373.517 270.863 372.792C271.248 372.067 271.786 371.511 272.478 371.126C273.18 370.729 273.985 370.531 274.892 370.531C275.776 370.531 276.558 370.724 277.238 371.109C277.918 371.494 278.439 372.027 278.802 372.707C279.176 373.376 279.363 374.135 279.363 374.985ZM277.765 374.662C277.765 374.073 277.634 373.568 277.374 373.149C277.113 372.718 276.756 372.395 276.303 372.18C275.861 371.953 275.368 371.84 274.824 371.84C274.042 371.84 273.373 372.089 272.818 372.588C272.274 373.087 271.962 373.778 271.883 374.662H277.765ZM292.608 370.514C293.333 370.514 293.979 370.667 294.546 370.973C295.112 371.268 295.56 371.715 295.889 372.316C296.217 372.917 296.382 373.648 296.382 374.509V380H294.852V374.73C294.852 373.801 294.619 373.092 294.155 372.605C293.701 372.106 293.084 371.857 292.302 371.857C291.497 371.857 290.857 372.118 290.381 372.639C289.905 373.149 289.667 373.891 289.667 374.866V380H288.137V374.73C288.137 373.801 287.904 373.092 287.44 372.605C286.986 372.106 286.369 371.857 285.587 371.857C284.782 371.857 284.142 372.118 283.666 372.639C283.19 373.149 282.952 373.891 282.952 374.866V380H281.405V370.684H282.952V372.027C283.258 371.54 283.666 371.166 284.176 370.905C284.697 370.644 285.269 370.514 285.893 370.514C286.675 370.514 287.366 370.69 287.967 371.041C288.567 371.392 289.015 371.908 289.31 372.588C289.57 371.931 290.001 371.421 290.602 371.058C291.202 370.695 291.871 370.514 292.608 370.514Z" fill="white"/>
<path d="M426.856 378.742H431.004V380H425.309V368.151H426.856V378.742ZM436.71 380.153C435.837 380.153 435.044 379.955 434.33 379.558C433.627 379.161 433.072 378.6 432.664 377.875C432.267 377.138 432.069 376.288 432.069 375.325C432.069 374.373 432.273 373.534 432.681 372.809C433.1 372.072 433.667 371.511 434.381 371.126C435.095 370.729 435.894 370.531 436.778 370.531C437.662 370.531 438.461 370.729 439.175 371.126C439.889 371.511 440.45 372.067 440.858 372.792C441.277 373.517 441.487 374.362 441.487 375.325C441.487 376.288 441.272 377.138 440.841 377.875C440.422 378.6 439.849 379.161 439.124 379.558C438.399 379.955 437.594 380.153 436.71 380.153ZM436.71 378.793C437.265 378.793 437.787 378.663 438.274 378.402C438.761 378.141 439.152 377.75 439.447 377.229C439.753 376.708 439.906 376.073 439.906 375.325C439.906 374.577 439.759 373.942 439.464 373.421C439.169 372.9 438.784 372.514 438.308 372.265C437.832 372.004 437.316 371.874 436.761 371.874C436.194 371.874 435.673 372.004 435.197 372.265C434.732 372.514 434.358 372.9 434.075 373.421C433.792 373.942 433.65 374.577 433.65 375.325C433.65 376.084 433.786 376.725 434.058 377.246C434.341 377.767 434.715 378.158 435.18 378.419C435.645 378.668 436.155 378.793 436.71 378.793ZM445.068 372.197C445.34 371.664 445.725 371.251 446.224 370.956C446.734 370.661 447.352 370.514 448.077 370.514V372.112H447.669C445.935 372.112 445.068 373.053 445.068 374.934V380H443.521V370.684H445.068V372.197ZM458.363 374.985C458.363 375.28 458.346 375.591 458.312 375.92H450.866C450.922 376.838 451.234 377.558 451.801 378.079C452.379 378.589 453.076 378.844 453.892 378.844C454.56 378.844 455.116 378.691 455.558 378.385C456.011 378.068 456.328 377.648 456.51 377.127H458.176C457.926 378.022 457.428 378.753 456.68 379.32C455.932 379.875 455.002 380.153 453.892 380.153C453.008 380.153 452.214 379.955 451.512 379.558C450.82 379.161 450.276 378.6 449.88 377.875C449.483 377.138 449.285 376.288 449.285 375.325C449.285 374.362 449.477 373.517 449.863 372.792C450.248 372.067 450.786 371.511 451.478 371.126C452.18 370.729 452.985 370.531 453.892 370.531C454.776 370.531 455.558 370.724 456.238 371.109C456.918 371.494 457.439 372.027 457.802 372.707C458.176 373.376 458.363 374.135 458.363 374.985ZM456.765 374.662C456.765 374.073 456.634 373.568 456.374 373.149C456.113 372.718 455.756 372.395 455.303 372.18C454.861 371.953 454.368 371.84 453.824 371.84C453.042 371.84 452.373 372.089 451.818 372.588C451.274 373.087 450.962 373.778 450.883 374.662H456.765ZM471.608 370.514C472.333 370.514 472.979 370.667 473.546 370.973C474.112 371.268 474.56 371.715 474.889 372.316C475.217 372.917 475.382 373.648 475.382 374.509V380H473.852V374.73C473.852 373.801 473.619 373.092 473.155 372.605C472.701 372.106 472.084 371.857 471.302 371.857C470.497 371.857 469.857 372.118 469.381 372.639C468.905 373.149 468.667 373.891 468.667 374.866V380H467.137V374.73C467.137 373.801 466.904 373.092 466.44 372.605C465.986 372.106 465.369 371.857 464.587 371.857C463.782 371.857 463.142 372.118 462.666 372.639C462.19 373.149 461.952 373.891 461.952 374.866V380H460.405V370.684H461.952V372.027C462.258 371.54 462.666 371.166 463.176 370.905C463.697 370.644 464.269 370.514 464.893 370.514C465.675 370.514 466.366 370.69 466.967 371.041C467.567 371.392 468.015 371.908 468.31 372.588C468.57 371.931 469.001 371.421 469.602 371.058C470.202 370.695 470.871 370.514 471.608 370.514Z" fill="white"/>
<path d="M67.856 437.742H72.004V439H66.309V427.151H67.856V437.742ZM77.7099 439.153C76.8372 439.153 76.0439 438.955 75.3299 438.558C74.6272 438.161 74.0719 437.6 73.6639 436.875C73.2672 436.138 73.0689 435.288 73.0689 434.325C73.0689 433.373 73.2729 432.534 73.6809 431.809C74.1002 431.072 74.6669 430.511 75.3809 430.126C76.0949 429.729 76.8939 429.531 77.7779 429.531C78.6619 429.531 79.4609 429.729 80.1749 430.126C80.8889 430.511 81.4499 431.067 81.8579 431.792C82.2772 432.517 82.4869 433.362 82.4869 434.325C82.4869 435.288 82.2716 436.138 81.8409 436.875C81.4216 437.6 80.8492 438.161 80.1239 438.558C79.3986 438.955 78.5939 439.153 77.7099 439.153ZM77.7099 437.793C78.2652 437.793 78.7866 437.663 79.2739 437.402C79.7612 437.141 80.1522 436.75 80.4469 436.229C80.7529 435.708 80.9059 435.073 80.9059 434.325C80.9059 433.577 80.7586 432.942 80.4639 432.421C80.1692 431.9 79.7839 431.514 79.3079 431.265C78.8319 431.004 78.3162 430.874 77.7609 430.874C77.1942 430.874 76.6729 431.004 76.1969 431.265C75.7322 431.514 75.3582 431.9 75.0749 432.421C74.7916 432.942 74.6499 433.577 74.6499 434.325C74.6499 435.084 74.7859 435.725 75.0579 436.246C75.3412 436.767 75.7152 437.158 76.1799 437.419C76.6446 437.668 77.1546 437.793 77.7099 437.793ZM86.0679 431.197C86.3399 430.664 86.7252 430.251 87.2239 429.956C87.7339 429.661 88.3516 429.514 89.0769 429.514V431.112H88.6689C86.9349 431.112 86.0679 432.053 86.0679 433.934V439H84.5209V429.684H86.0679V431.197ZM99.3627 433.985C99.3627 434.28 99.3457 434.591 99.3117 434.92H91.8657C91.9224 435.838 92.234 436.558 92.8007 437.079C93.3787 437.589 94.0757 437.844 94.8917 437.844C95.5604 437.844 96.1157 437.691 96.5577 437.385C97.011 437.068 97.3284 436.648 97.5097 436.127H99.1757C98.9264 437.022 98.4277 437.753 97.6797 438.32C96.9317 438.875 96.0024 439.153 94.8917 439.153C94.0077 439.153 93.2144 438.955 92.5117 438.558C91.8204 438.161 91.2764 437.6 90.8797 436.875C90.483 436.138 90.2847 435.288 90.2847 434.325C90.2847 433.362 90.4774 432.517 90.8627 431.792C91.248 431.067 91.7864 430.511 92.4777 430.126C93.1804 429.729 93.985 429.531 94.8917 429.531C95.7757 429.531 96.5577 429.724 97.2377 430.109C97.9177 430.494 98.439 431.027 98.8017 431.707C99.1757 432.376 99.3627 433.135 99.3627 433.985ZM97.7647 433.662C97.7647 433.073 97.6344 432.568 97.3737 432.149C97.113 431.718 96.756 431.395 96.3027 431.18C95.8607 430.953 95.3677 430.84 94.8237 430.84C94.0417 430.84 93.373 431.089 92.8177 431.588C92.2737 432.087 91.962 432.778 91.8827 433.662H97.7647ZM112.608 429.514C113.333 429.514 113.979 429.667 114.546 429.973C115.112 430.268 115.56 430.715 115.889 431.316C116.217 431.917 116.382 432.648 116.382 433.509V439H114.852V433.73C114.852 432.801 114.619 432.092 114.155 431.605C113.701 431.106 113.084 430.857 112.302 430.857C111.497 430.857 110.857 431.118 110.381 431.639C109.905 432.149 109.667 432.891 109.667 433.866V439H108.137V433.73C108.137 432.801 107.904 432.092 107.44 431.605C106.986 431.106 106.369 430.857 105.587 430.857C104.782 430.857 104.142 431.118 103.666 431.639C103.19 432.149 102.952 432.891 102.952 433.866V439H101.405V429.684H102.952V431.027C103.258 430.54 103.666 430.166 104.176 429.905C104.697 429.644 105.269 429.514 105.893 429.514C106.675 429.514 107.366 429.69 107.967 430.041C108.567 430.392 109.015 430.908 109.31 431.588C109.57 430.931 110.001 430.421 110.602 430.058C111.202 429.695 111.871 429.514 112.608 429.514Z" fill="white"/>
<path d="M247.856 437.742H252.004V439H246.309V427.151H247.856V437.742ZM257.71 439.153C256.837 439.153 256.044 438.955 255.33 438.558C254.627 438.161 254.072 437.6 253.664 436.875C253.267 436.138 253.069 435.288 253.069 434.325C253.069 433.373 253.273 432.534 253.681 431.809C254.1 431.072 254.667 430.511 255.381 430.126C256.095 429.729 256.894 429.531 257.778 429.531C258.662 429.531 259.461 429.729 260.175 430.126C260.889 430.511 261.45 431.067 261.858 431.792C262.277 432.517 262.487 433.362 262.487 434.325C262.487 435.288 262.272 436.138 261.841 436.875C261.422 437.6 260.849 438.161 260.124 438.558C259.399 438.955 258.594 439.153 257.71 439.153ZM257.71 437.793C258.265 437.793 258.787 437.663 259.274 437.402C259.761 437.141 260.152 436.75 260.447 436.229C260.753 435.708 260.906 435.073 260.906 434.325C260.906 433.577 260.759 432.942 260.464 432.421C260.169 431.9 259.784 431.514 259.308 431.265C258.832 431.004 258.316 430.874 257.761 430.874C257.194 430.874 256.673 431.004 256.197 431.265C255.732 431.514 255.358 431.9 255.075 432.421C254.792 432.942 254.65 433.577 254.65 434.325C254.65 435.084 254.786 435.725 255.058 436.246C255.341 436.767 255.715 437.158 256.18 437.419C256.645 437.668 257.155 437.793 257.71 437.793ZM266.068 431.197C266.34 430.664 266.725 430.251 267.224 429.956C267.734 429.661 268.352 429.514 269.077 429.514V431.112H268.669C266.935 431.112 266.068 432.053 266.068 433.934V439H264.521V429.684H266.068V431.197ZM279.363 433.985C279.363 434.28 279.346 434.591 279.312 434.92H271.866C271.922 435.838 272.234 436.558 272.801 437.079C273.379 437.589 274.076 437.844 274.892 437.844C275.56 437.844 276.116 437.691 276.558 437.385C277.011 437.068 277.328 436.648 277.51 436.127H279.176C278.926 437.022 278.428 437.753 277.68 438.32C276.932 438.875 276.002 439.153 274.892 439.153C274.008 439.153 273.214 438.955 272.512 438.558C271.82 438.161 271.276 437.6 270.88 436.875C270.483 436.138 270.285 435.288 270.285 434.325C270.285 433.362 270.477 432.517 270.863 431.792C271.248 431.067 271.786 430.511 272.478 430.126C273.18 429.729 273.985 429.531 274.892 429.531C275.776 429.531 276.558 429.724 277.238 430.109C277.918 430.494 278.439 431.027 278.802 431.707C279.176 432.376 279.363 433.135 279.363 433.985ZM277.765 433.662C277.765 433.073 277.634 432.568 277.374 432.149C277.113 431.718 276.756 431.395 276.303 431.18C275.861 430.953 275.368 430.84 274.824 430.84C274.042 430.84 273.373 431.089 272.818 431.588C272.274 432.087 271.962 432.778 271.883 433.662H277.765ZM292.608 429.514C293.333 429.514 293.979 429.667 294.546 429.973C295.112 430.268 295.56 430.715 295.889 431.316C296.217 431.917 296.382 432.648 296.382 433.509V439H294.852V433.73C294.852 432.801 294.619 432.092 294.155 431.605C293.701 431.106 293.084 430.857 292.302 430.857C291.497 430.857 290.857 431.118 290.381 431.639C289.905 432.149 289.667 432.891 289.667 433.866V439H288.137V433.73C288.137 432.801 287.904 432.092 287.44 431.605C286.986 431.106 286.369 430.857 285.587 430.857C284.782 430.857 284.142 431.118 283.666 431.639C283.19 432.149 282.952 432.891 282.952 433.866V439H281.405V429.684H282.952V431.027C283.258 430.54 283.666 430.166 284.176 429.905C284.697 429.644 285.269 429.514 285.893 429.514C286.675 429.514 287.366 429.69 287.967 430.041C288.567 430.392 289.015 430.908 289.31 431.588C289.57 430.931 290.001 430.421 290.602 430.058C291.202 429.695 291.871 429.514 292.608 429.514Z" fill="white"/>
<path d="M426.856 437.742H431.004V439H425.309V427.151H426.856V437.742ZM436.71 439.153C435.837 439.153 435.044 438.955 434.33 438.558C433.627 438.161 433.072 437.6 432.664 436.875C432.267 436.138 432.069 435.288 432.069 434.325C432.069 433.373 432.273 432.534 432.681 431.809C433.1 431.072 433.667 430.511 434.381 430.126C435.095 429.729 435.894 429.531 436.778 429.531C437.662 429.531 438.461 429.729 439.175 430.126C439.889 430.511 440.45 431.067 440.858 431.792C441.277 432.517 441.487 433.362 441.487 434.325C441.487 435.288 441.272 436.138 440.841 436.875C440.422 437.6 439.849 438.161 439.124 438.558C438.399 438.955 437.594 439.153 436.71 439.153ZM436.71 437.793C437.265 437.793 437.787 437.663 438.274 437.402C438.761 437.141 439.152 436.75 439.447 436.229C439.753 435.708 439.906 435.073 439.906 434.325C439.906 433.577 439.759 432.942 439.464 432.421C439.169 431.9 438.784 431.514 438.308 431.265C437.832 431.004 437.316 430.874 436.761 430.874C436.194 430.874 435.673 431.004 435.197 431.265C434.732 431.514 434.358 431.9 434.075 432.421C433.792 432.942 433.65 433.577 433.65 434.325C433.65 435.084 433.786 435.725 434.058 436.246C434.341 436.767 434.715 437.158 435.18 437.419C435.645 437.668 436.155 437.793 436.71 437.793ZM445.068 431.197C445.34 430.664 445.725 430.251 446.224 429.956C446.734 429.661 447.352 429.514 448.077 429.514V431.112H447.669C445.935 431.112 445.068 432.053 445.068 433.934V439H443.521V429.684H445.068V431.197ZM458.363 433.985C458.363 434.28 458.346 434.591 458.312 434.92H450.866C450.922 435.838 451.234 436.558 451.801 437.079C452.379 437.589 453.076 437.844 453.892 437.844C454.56 437.844 455.116 437.691 455.558 437.385C456.011 437.068 456.328 436.648 456.51 436.127H458.176C457.926 437.022 457.428 437.753 456.68 438.32C455.932 438.875 455.002 439.153 453.892 439.153C453.008 439.153 452.214 438.955 451.512 438.558C450.82 438.161 450.276 437.6 449.88 436.875C449.483 436.138 449.285 435.288 449.285 434.325C449.285 433.362 449.477 432.517 449.863 431.792C450.248 431.067 450.786 430.511 451.478 430.126C452.18 429.729 452.985 429.531 453.892 429.531C454.776 429.531 455.558 429.724 456.238 430.109C456.918 430.494 457.439 431.027 457.802 431.707C458.176 432.376 458.363 433.135 458.363 433.985ZM456.765 433.662C456.765 433.073 456.634 432.568 456.374 432.149C456.113 431.718 455.756 431.395 455.303 431.18C454.861 430.953 454.368 430.84 453.824 430.84C453.042 430.84 452.373 431.089 451.818 431.588C451.274 432.087 450.962 432.778 450.883 433.662H456.765ZM471.608 429.514C472.333 429.514 472.979 429.667 473.546 429.973C474.112 430.268 474.56 430.715 474.889 431.316C475.217 431.917 475.382 432.648 475.382 433.509V439H473.852V433.73C473.852 432.801 473.619 432.092 473.155 431.605C472.701 431.106 472.084 430.857 471.302 430.857C470.497 430.857 469.857 431.118 469.381 431.639C468.905 432.149 468.667 432.891 468.667 433.866V439H467.137V433.73C467.137 432.801 466.904 432.092 466.44 431.605C465.986 431.106 465.369 430.857 464.587 430.857C463.782 430.857 463.142 431.118 462.666 431.639C462.19 432.149 461.952 432.891 461.952 433.866V439H460.405V429.684H461.952V431.027C462.258 430.54 462.666 430.166 463.176 429.905C463.697 429.644 464.269 429.514 464.893 429.514C465.675 429.514 466.366 429.69 466.967 430.041C467.567 430.392 468.015 430.908 468.31 431.588C468.57 430.931 469.001 430.421 469.602 430.058C470.202 429.695 470.871 429.514 471.608 429.514Z" fill="white"/>
<path d="M67.856 496.742H72.004V498H66.309V486.151H67.856V496.742ZM77.7099 498.153C76.8372 498.153 76.0439 497.955 75.3299 497.558C74.6272 497.161 74.0719 496.6 73.6639 495.875C73.2672 495.138 73.0689 494.288 73.0689 493.325C73.0689 492.373 73.2729 491.534 73.6809 490.809C74.1002 490.072 74.6669 489.511 75.3809 489.126C76.0949 488.729 76.8939 488.531 77.7779 488.531C78.6619 488.531 79.4609 488.729 80.1749 489.126C80.8889 489.511 81.4499 490.067 81.8579 490.792C82.2772 491.517 82.4869 492.362 82.4869 493.325C82.4869 494.288 82.2716 495.138 81.8409 495.875C81.4216 496.6 80.8492 497.161 80.1239 497.558C79.3986 497.955 78.5939 498.153 77.7099 498.153ZM77.7099 496.793C78.2652 496.793 78.7866 496.663 79.2739 496.402C79.7612 496.141 80.1522 495.75 80.4469 495.229C80.7529 494.708 80.9059 494.073 80.9059 493.325C80.9059 492.577 80.7586 491.942 80.4639 491.421C80.1692 490.9 79.7839 490.514 79.3079 490.265C78.8319 490.004 78.3162 489.874 77.7609 489.874C77.1942 489.874 76.6729 490.004 76.1969 490.265C75.7322 490.514 75.3582 490.9 75.0749 491.421C74.7916 491.942 74.6499 492.577 74.6499 493.325C74.6499 494.084 74.7859 494.725 75.0579 495.246C75.3412 495.767 75.7152 496.158 76.1799 496.419C76.6446 496.668 77.1546 496.793 77.7099 496.793ZM86.0679 490.197C86.3399 489.664 86.7252 489.251 87.2239 488.956C87.7339 488.661 88.3516 488.514 89.0769 488.514V490.112H88.6689C86.9349 490.112 86.0679 491.053 86.0679 492.934V498H84.5209V488.684H86.0679V490.197ZM99.3627 492.985C99.3627 493.28 99.3457 493.591 99.3117 493.92H91.8657C91.9224 494.838 92.234 495.558 92.8007 496.079C93.3787 496.589 94.0757 496.844 94.8917 496.844C95.5604 496.844 96.1157 496.691 96.5577 496.385C97.011 496.068 97.3284 495.648 97.5097 495.127H99.1757C98.9264 496.022 98.4277 496.753 97.6797 497.32C96.9317 497.875 96.0024 498.153 94.8917 498.153C94.0077 498.153 93.2144 497.955 92.5117 497.558C91.8204 497.161 91.2764 496.6 90.8797 495.875C90.483 495.138 90.2847 494.288 90.2847 493.325C90.2847 492.362 90.4774 491.517 90.8627 490.792C91.248 490.067 91.7864 489.511 92.4777 489.126C93.1804 488.729 93.985 488.531 94.8917 488.531C95.7757 488.531 96.5577 488.724 97.2377 489.109C97.9177 489.494 98.439 490.027 98.8017 490.707C99.1757 491.376 99.3627 492.135 99.3627 492.985ZM97.7647 492.662C97.7647 492.073 97.6344 491.568 97.3737 491.149C97.113 490.718 96.756 490.395 96.3027 490.18C95.8607 489.953 95.3677 489.84 94.8237 489.84C94.0417 489.84 93.373 490.089 92.8177 490.588C92.2737 491.087 91.962 491.778 91.8827 492.662H97.7647ZM112.608 488.514C113.333 488.514 113.979 488.667 114.546 488.973C115.112 489.268 115.56 489.715 115.889 490.316C116.217 490.917 116.382 491.648 116.382 492.509V498H114.852V492.73C114.852 491.801 114.619 491.092 114.155 490.605C113.701 490.106 113.084 489.857 112.302 489.857C111.497 489.857 110.857 490.118 110.381 490.639C109.905 491.149 109.667 491.891 109.667 492.866V498H108.137V492.73C108.137 491.801 107.904 491.092 107.44 490.605C106.986 490.106 106.369 489.857 105.587 489.857C104.782 489.857 104.142 490.118 103.666 490.639C103.19 491.149 102.952 491.891 102.952 492.866V498H101.405V488.684H102.952V490.027C103.258 489.54 103.666 489.166 104.176 488.905C104.697 488.644 105.269 488.514 105.893 488.514C106.675 488.514 107.366 488.69 107.967 489.041C108.567 489.392 109.015 489.908 109.31 490.588C109.57 489.931 110.001 489.421 110.602 489.058C111.202 488.695 111.871 488.514 112.608 488.514Z" fill="white"/>
<path d="M247.856 496.742H252.004V498H246.309V486.151H247.856V496.742ZM257.71 498.153C256.837 498.153 256.044 497.955 255.33 497.558C254.627 497.161 254.072 496.6 253.664 495.875C253.267 495.138 253.069 494.288 253.069 493.325C253.069 492.373 253.273 491.534 253.681 490.809C254.1 490.072 254.667 489.511 255.381 489.126C256.095 488.729 256.894 488.531 257.778 488.531C258.662 488.531 259.461 488.729 260.175 489.126C260.889 489.511 261.45 490.067 261.858 490.792C262.277 491.517 262.487 492.362 262.487 493.325C262.487 494.288 262.272 495.138 261.841 495.875C261.422 496.6 260.849 497.161 260.124 497.558C259.399 497.955 258.594 498.153 257.71 498.153ZM257.71 496.793C258.265 496.793 258.787 496.663 259.274 496.402C259.761 496.141 260.152 495.75 260.447 495.229C260.753 494.708 260.906 494.073 260.906 493.325C260.906 492.577 260.759 491.942 260.464 491.421C260.169 490.9 259.784 490.514 259.308 490.265C258.832 490.004 258.316 489.874 257.761 489.874C257.194 489.874 256.673 490.004 256.197 490.265C255.732 490.514 255.358 490.9 255.075 491.421C254.792 491.942 254.65 492.577 254.65 493.325C254.65 494.084 254.786 494.725 255.058 495.246C255.341 495.767 255.715 496.158 256.18 496.419C256.645 496.668 257.155 496.793 257.71 496.793ZM266.068 490.197C266.34 489.664 266.725 489.251 267.224 488.956C267.734 488.661 268.352 488.514 269.077 488.514V490.112H268.669C266.935 490.112 266.068 491.053 266.068 492.934V498H264.521V488.684H266.068V490.197ZM279.363 492.985C279.363 493.28 279.346 493.591 279.312 493.92H271.866C271.922 494.838 272.234 495.558 272.801 496.079C273.379 496.589 274.076 496.844 274.892 496.844C275.56 496.844 276.116 496.691 276.558 496.385C277.011 496.068 277.328 495.648 277.51 495.127H279.176C278.926 496.022 278.428 496.753 277.68 497.32C276.932 497.875 276.002 498.153 274.892 498.153C274.008 498.153 273.214 497.955 272.512 497.558C271.82 497.161 271.276 496.6 270.88 495.875C270.483 495.138 270.285 494.288 270.285 493.325C270.285 492.362 270.477 491.517 270.863 490.792C271.248 490.067 271.786 489.511 272.478 489.126C273.18 488.729 273.985 488.531 274.892 488.531C275.776 488.531 276.558 488.724 277.238 489.109C277.918 489.494 278.439 490.027 278.802 490.707C279.176 491.376 279.363 492.135 279.363 492.985ZM277.765 492.662C277.765 492.073 277.634 491.568 277.374 491.149C277.113 490.718 276.756 490.395 276.303 490.18C275.861 489.953 275.368 489.84 274.824 489.84C274.042 489.84 273.373 490.089 272.818 490.588C272.274 491.087 271.962 491.778 271.883 492.662H277.765ZM292.608 488.514C293.333 488.514 293.979 488.667 294.546 488.973C295.112 489.268 295.56 489.715 295.889 490.316C296.217 490.917 296.382 491.648 296.382 492.509V498H294.852V492.73C294.852 491.801 294.619 491.092 294.155 490.605C293.701 490.106 293.084 489.857 292.302 489.857C291.497 489.857 290.857 490.118 290.381 490.639C289.905 491.149 289.667 491.891 289.667 492.866V498H288.137V492.73C288.137 491.801 287.904 491.092 287.44 490.605C286.986 490.106 286.369 489.857 285.587 489.857C284.782 489.857 284.142 490.118 283.666 490.639C283.19 491.149 282.952 491.891 282.952 492.866V498H281.405V488.684H282.952V490.027C283.258 489.54 283.666 489.166 284.176 488.905C284.697 488.644 285.269 488.514 285.893 488.514C286.675 488.514 287.366 488.69 287.967 489.041C288.567 489.392 289.015 489.908 289.31 490.588C289.57 489.931 290.001 489.421 290.602 489.058C291.202 488.695 291.871 488.514 292.608 488.514Z" fill="white"/>
<path d="M426.856 496.742H431.004V498H425.309V486.151H426.856V496.742ZM436.71 498.153C435.837 498.153 435.044 497.955 434.33 497.558C433.627 497.161 433.072 496.6 432.664 495.875C432.267 495.138 432.069 494.288 432.069 493.325C432.069 492.373 432.273 491.534 432.681 490.809C433.1 490.072 433.667 489.511 434.381 489.126C435.095 488.729 435.894 488.531 436.778 488.531C437.662 488.531 438.461 488.729 439.175 489.126C439.889 489.511 440.45 490.067 440.858 490.792C441.277 491.517 441.487 492.362 441.487 493.325C441.487 494.288 441.272 495.138 440.841 495.875C440.422 496.6 439.849 497.161 439.124 497.558C438.399 497.955 437.594 498.153 436.71 498.153ZM436.71 496.793C437.265 496.793 437.787 496.663 438.274 496.402C438.761 496.141 439.152 495.75 439.447 495.229C439.753 494.708 439.906 494.073 439.906 493.325C439.906 492.577 439.759 491.942 439.464 491.421C439.169 490.9 438.784 490.514 438.308 490.265C437.832 490.004 437.316 489.874 436.761 489.874C436.194 489.874 435.673 490.004 435.197 490.265C434.732 490.514 434.358 490.9 434.075 491.421C433.792 491.942 433.65 492.577 433.65 493.325C433.65 494.084 433.786 494.725 434.058 495.246C434.341 495.767 434.715 496.158 435.18 496.419C435.645 496.668 436.155 496.793 436.71 496.793ZM445.068 490.197C445.34 489.664 445.725 489.251 446.224 488.956C446.734 488.661 447.352 488.514 448.077 488.514V490.112H447.669C445.935 490.112 445.068 491.053 445.068 492.934V498H443.521V488.684H445.068V490.197ZM458.363 492.985C458.363 493.28 458.346 493.591 458.312 493.92H450.866C450.922 494.838 451.234 495.558 451.801 496.079C452.379 496.589 453.076 496.844 453.892 496.844C454.56 496.844 455.116 496.691 455.558 496.385C456.011 496.068 456.328 495.648 456.51 495.127H458.176C457.926 496.022 457.428 496.753 456.68 497.32C455.932 497.875 455.002 498.153 453.892 498.153C453.008 498.153 452.214 497.955 451.512 497.558C450.82 497.161 450.276 496.6 449.88 495.875C449.483 495.138 449.285 494.288 449.285 493.325C449.285 492.362 449.477 491.517 449.863 490.792C450.248 490.067 450.786 489.511 451.478 489.126C452.18 488.729 452.985 488.531 453.892 488.531C454.776 488.531 455.558 488.724 456.238 489.109C456.918 489.494 457.439 490.027 457.802 490.707C458.176 491.376 458.363 492.135 458.363 492.985ZM456.765 492.662C456.765 492.073 456.634 491.568 456.374 491.149C456.113 490.718 455.756 490.395 455.303 490.18C454.861 489.953 454.368 489.84 453.824 489.84C453.042 489.84 452.373 490.089 451.818 490.588C451.274 491.087 450.962 491.778 450.883 492.662H456.765ZM471.608 488.514C472.333 488.514 472.979 488.667 473.546 488.973C474.112 489.268 474.56 489.715 474.889 490.316C475.217 490.917 475.382 491.648 475.382 492.509V498H473.852V492.73C473.852 491.801 473.619 491.092 473.155 490.605C472.701 490.106 472.084 489.857 471.302 489.857C470.497 489.857 469.857 490.118 469.381 490.639C468.905 491.149 468.667 491.891 468.667 492.866V498H467.137V492.73C467.137 491.801 466.904 491.092 466.44 490.605C465.986 490.106 465.369 489.857 464.587 489.857C463.782 489.857 463.142 490.118 462.666 490.639C462.19 491.149 461.952 491.891 461.952 492.866V498H460.405V488.684H461.952V490.027C462.258 489.54 462.666 489.166 463.176 488.905C463.697 488.644 464.269 488.514 464.893 488.514C465.675 488.514 466.366 488.69 466.967 489.041C467.567 489.392 468.015 489.908 468.31 490.588C468.57 489.931 469.001 489.421 469.602 489.058C470.202 488.695 470.871 488.514 471.608 488.514Z" fill="white"/>
<path d="M67.856 555.742H72.004V557H66.309V545.151H67.856V555.742ZM77.7099 557.153C76.8372 557.153 76.0439 556.955 75.3299 556.558C74.6272 556.161 74.0719 555.6 73.6639 554.875C73.2672 554.138 73.0689 553.288 73.0689 552.325C73.0689 551.373 73.2729 550.534 73.6809 549.809C74.1002 549.072 74.6669 548.511 75.3809 548.126C76.0949 547.729 76.8939 547.531 77.7779 547.531C78.6619 547.531 79.4609 547.729 80.1749 548.126C80.8889 548.511 81.4499 549.067 81.8579 549.792C82.2772 550.517 82.4869 551.362 82.4869 552.325C82.4869 553.288 82.2716 554.138 81.8409 554.875C81.4216 555.6 80.8492 556.161 80.1239 556.558C79.3986 556.955 78.5939 557.153 77.7099 557.153ZM77.7099 555.793C78.2652 555.793 78.7866 555.663 79.2739 555.402C79.7612 555.141 80.1522 554.75 80.4469 554.229C80.7529 553.708 80.9059 553.073 80.9059 552.325C80.9059 551.577 80.7586 550.942 80.4639 550.421C80.1692 549.9 79.7839 549.514 79.3079 549.265C78.8319 549.004 78.3162 548.874 77.7609 548.874C77.1942 548.874 76.6729 549.004 76.1969 549.265C75.7322 549.514 75.3582 549.9 75.0749 550.421C74.7916 550.942 74.6499 551.577 74.6499 552.325C74.6499 553.084 74.7859 553.725 75.0579 554.246C75.3412 554.767 75.7152 555.158 76.1799 555.419C76.6446 555.668 77.1546 555.793 77.7099 555.793ZM86.0679 549.197C86.3399 548.664 86.7252 548.251 87.2239 547.956C87.7339 547.661 88.3516 547.514 89.0769 547.514V549.112H88.6689C86.9349 549.112 86.0679 550.053 86.0679 551.934V557H84.5209V547.684H86.0679V549.197ZM99.3627 551.985C99.3627 552.28 99.3457 552.591 99.3117 552.92H91.8657C91.9224 553.838 92.234 554.558 92.8007 555.079C93.3787 555.589 94.0757 555.844 94.8917 555.844C95.5604 555.844 96.1157 555.691 96.5577 555.385C97.011 555.068 97.3284 554.648 97.5097 554.127H99.1757C98.9264 555.022 98.4277 555.753 97.6797 556.32C96.9317 556.875 96.0024 557.153 94.8917 557.153C94.0077 557.153 93.2144 556.955 92.5117 556.558C91.8204 556.161 91.2764 555.6 90.8797 554.875C90.483 554.138 90.2847 553.288 90.2847 552.325C90.2847 551.362 90.4774 550.517 90.8627 549.792C91.248 549.067 91.7864 548.511 92.4777 548.126C93.1804 547.729 93.985 547.531 94.8917 547.531C95.7757 547.531 96.5577 547.724 97.2377 548.109C97.9177 548.494 98.439 549.027 98.8017 549.707C99.1757 550.376 99.3627 551.135 99.3627 551.985ZM97.7647 551.662C97.7647 551.073 97.6344 550.568 97.3737 550.149C97.113 549.718 96.756 549.395 96.3027 549.18C95.8607 548.953 95.3677 548.84 94.8237 548.84C94.0417 548.84 93.373 549.089 92.8177 549.588C92.2737 550.087 91.962 550.778 91.8827 551.662H97.7647ZM112.608 547.514C113.333 547.514 113.979 547.667 114.546 547.973C115.112 548.268 115.56 548.715 115.889 549.316C116.217 549.917 116.382 550.648 116.382 551.509V557H114.852V551.73C114.852 550.801 114.619 550.092 114.155 549.605C113.701 549.106 113.084 548.857 112.302 548.857C111.497 548.857 110.857 549.118 110.381 549.639C109.905 550.149 109.667 550.891 109.667 551.866V557H108.137V551.73C108.137 550.801 107.904 550.092 107.44 549.605C106.986 549.106 106.369 548.857 105.587 548.857C104.782 548.857 104.142 549.118 103.666 549.639C103.19 550.149 102.952 550.891 102.952 551.866V557H101.405V547.684H102.952V549.027C103.258 548.54 103.666 548.166 104.176 547.905C104.697 547.644 105.269 547.514 105.893 547.514C106.675 547.514 107.366 547.69 107.967 548.041C108.567 548.392 109.015 548.908 109.31 549.588C109.57 548.931 110.001 548.421 110.602 548.058C111.202 547.695 111.871 547.514 112.608 547.514Z" fill="white"/>
<path d="M247.856 555.742H252.004V557H246.309V545.151H247.856V555.742ZM257.71 557.153C256.837 557.153 256.044 556.955 255.33 556.558C254.627 556.161 254.072 555.6 253.664 554.875C253.267 554.138 253.069 553.288 253.069 552.325C253.069 551.373 253.273 550.534 253.681 549.809C254.1 549.072 254.667 548.511 255.381 548.126C256.095 547.729 256.894 547.531 257.778 547.531C258.662 547.531 259.461 547.729 260.175 548.126C260.889 548.511 261.45 549.067 261.858 549.792C262.277 550.517 262.487 551.362 262.487 552.325C262.487 553.288 262.272 554.138 261.841 554.875C261.422 555.6 260.849 556.161 260.124 556.558C259.399 556.955 258.594 557.153 257.71 557.153ZM257.71 555.793C258.265 555.793 258.787 555.663 259.274 555.402C259.761 555.141 260.152 554.75 260.447 554.229C260.753 553.708 260.906 553.073 260.906 552.325C260.906 551.577 260.759 550.942 260.464 550.421C260.169 549.9 259.784 549.514 259.308 549.265C258.832 549.004 258.316 548.874 257.761 548.874C257.194 548.874 256.673 549.004 256.197 549.265C255.732 549.514 255.358 549.9 255.075 550.421C254.792 550.942 254.65 551.577 254.65 552.325C254.65 553.084 254.786 553.725 255.058 554.246C255.341 554.767 255.715 555.158 256.18 555.419C256.645 555.668 257.155 555.793 257.71 555.793ZM266.068 549.197C266.34 548.664 266.725 548.251 267.224 547.956C267.734 547.661 268.352 547.514 269.077 547.514V549.112H268.669C266.935 549.112 266.068 550.053 266.068 551.934V557H264.521V547.684H266.068V549.197ZM279.363 551.985C279.363 552.28 279.346 552.591 279.312 552.92H271.866C271.922 553.838 272.234 554.558 272.801 555.079C273.379 555.589 274.076 555.844 274.892 555.844C275.56 555.844 276.116 555.691 276.558 555.385C277.011 555.068 277.328 554.648 277.51 554.127H279.176C278.926 555.022 278.428 555.753 277.68 556.32C276.932 556.875 276.002 557.153 274.892 557.153C274.008 557.153 273.214 556.955 272.512 556.558C271.82 556.161 271.276 555.6 270.88 554.875C270.483 554.138 270.285 553.288 270.285 552.325C270.285 551.362 270.477 550.517 270.863 549.792C271.248 549.067 271.786 548.511 272.478 548.126C273.18 547.729 273.985 547.531 274.892 547.531C275.776 547.531 276.558 547.724 277.238 548.109C277.918 548.494 278.439 549.027 278.802 549.707C279.176 550.376 279.363 551.135 279.363 551.985ZM277.765 551.662C277.765 551.073 277.634 550.568 277.374 550.149C277.113 549.718 276.756 549.395 276.303 549.18C275.861 548.953 275.368 548.84 274.824 548.84C274.042 548.84 273.373 549.089 272.818 549.588C272.274 550.087 271.962 550.778 271.883 551.662H277.765ZM292.608 547.514C293.333 547.514 293.979 547.667 294.546 547.973C295.112 548.268 295.56 548.715 295.889 549.316C296.217 549.917 296.382 550.648 296.382 551.509V557H294.852V551.73C294.852 550.801 294.619 550.092 294.155 549.605C293.701 549.106 293.084 548.857 292.302 548.857C291.497 548.857 290.857 549.118 290.381 549.639C289.905 550.149 289.667 550.891 289.667 551.866V557H288.137V551.73C288.137 550.801 287.904 550.092 287.44 549.605C286.986 549.106 286.369 548.857 285.587 548.857C284.782 548.857 284.142 549.118 283.666 549.639C283.19 550.149 282.952 550.891 282.952 551.866V557H281.405V547.684H282.952V549.027C283.258 548.54 283.666 548.166 284.176 547.905C284.697 547.644 285.269 547.514 285.893 547.514C286.675 547.514 287.366 547.69 287.967 548.041C288.567 548.392 289.015 548.908 289.31 549.588C289.57 548.931 290.001 548.421 290.602 548.058C291.202 547.695 291.871 547.514 292.608 547.514Z" fill="white"/>
<path d="M426.856 555.742H431.004V557H425.309V545.151H426.856V555.742ZM436.71 557.153C435.837 557.153 435.044 556.955 434.33 556.558C433.627 556.161 433.072 555.6 432.664 554.875C432.267 554.138 432.069 553.288 432.069 552.325C432.069 551.373 432.273 550.534 432.681 549.809C433.1 549.072 433.667 548.511 434.381 548.126C435.095 547.729 435.894 547.531 436.778 547.531C437.662 547.531 438.461 547.729 439.175 548.126C439.889 548.511 440.45 549.067 440.858 549.792C441.277 550.517 441.487 551.362 441.487 552.325C441.487 553.288 441.272 554.138 440.841 554.875C440.422 555.6 439.849 556.161 439.124 556.558C438.399 556.955 437.594 557.153 436.71 557.153ZM436.71 555.793C437.265 555.793 437.787 555.663 438.274 555.402C438.761 555.141 439.152 554.75 439.447 554.229C439.753 553.708 439.906 553.073 439.906 552.325C439.906 551.577 439.759 550.942 439.464 550.421C439.169 549.9 438.784 549.514 438.308 549.265C437.832 549.004 437.316 548.874 436.761 548.874C436.194 548.874 435.673 549.004 435.197 549.265C434.732 549.514 434.358 549.9 434.075 550.421C433.792 550.942 433.65 551.577 433.65 552.325C433.65 553.084 433.786 553.725 434.058 554.246C434.341 554.767 434.715 555.158 435.18 555.419C435.645 555.668 436.155 555.793 436.71 555.793ZM445.068 549.197C445.34 548.664 445.725 548.251 446.224 547.956C446.734 547.661 447.352 547.514 448.077 547.514V549.112H447.669C445.935 549.112 445.068 550.053 445.068 551.934V557H443.521V547.684H445.068V549.197ZM458.363 551.985C458.363 552.28 458.346 552.591 458.312 552.92H450.866C450.922 553.838 451.234 554.558 451.801 555.079C452.379 555.589 453.076 555.844 453.892 555.844C454.56 555.844 455.116 555.691 455.558 555.385C456.011 555.068 456.328 554.648 456.51 554.127H458.176C457.926 555.022 457.428 555.753 456.68 556.32C455.932 556.875 455.002 557.153 453.892 557.153C453.008 557.153 452.214 556.955 451.512 556.558C450.82 556.161 450.276 555.6 449.88 554.875C449.483 554.138 449.285 553.288 449.285 552.325C449.285 551.362 449.477 550.517 449.863 549.792C450.248 549.067 450.786 548.511 451.478 548.126C452.18 547.729 452.985 547.531 453.892 547.531C454.776 547.531 455.558 547.724 456.238 548.109C456.918 548.494 457.439 549.027 457.802 549.707C458.176 550.376 458.363 551.135 458.363 551.985ZM456.765 551.662C456.765 551.073 456.634 550.568 456.374 550.149C456.113 549.718 455.756 549.395 455.303 549.18C454.861 548.953 454.368 548.84 453.824 548.84C453.042 548.84 452.373 549.089 451.818 549.588C451.274 550.087 450.962 550.778 450.883 551.662H456.765ZM471.608 547.514C472.333 547.514 472.979 547.667 473.546 547.973C474.112 548.268 474.56 548.715 474.889 549.316C475.217 549.917 475.382 550.648 475.382 551.509V557H473.852V551.73C473.852 550.801 473.619 550.092 473.155 549.605C472.701 549.106 472.084 548.857 471.302 548.857C470.497 548.857 469.857 549.118 469.381 549.639C468.905 550.149 468.667 550.891 468.667 551.866V557H467.137V551.73C467.137 550.801 466.904 550.092 466.44 549.605C465.986 549.106 465.369 548.857 464.587 548.857C463.782 548.857 463.142 549.118 462.666 549.639C462.19 550.149 461.952 550.891 461.952 551.866V557H460.405V547.684H461.952V549.027C462.258 548.54 462.666 548.166 463.176 547.905C463.697 547.644 464.269 547.514 464.893 547.514C465.675 547.514 466.366 547.69 466.967 548.041C467.567 548.392 468.015 548.908 468.31 549.588C468.57 548.931 469.001 548.421 469.602 548.058C470.202 547.695 470.871 547.514 471.608 547.514Z" fill="white"/>
<path d="M232.665 119.35C232.665 118.045 232.956 116.88 233.539 115.854C234.134 114.815 234.939 114.011 235.952 113.441C236.978 112.858 238.124 112.567 239.391 112.567C240.873 112.567 242.171 112.947 243.286 113.707C244.401 114.467 245.18 115.518 245.623 116.861H242.564C242.26 116.228 241.829 115.753 241.272 115.436C240.727 115.119 240.094 114.961 239.372 114.961C238.599 114.961 237.909 115.145 237.301 115.512C236.706 115.867 236.237 116.373 235.895 117.032C235.566 117.691 235.401 118.463 235.401 119.35C235.401 120.224 235.566 120.997 235.895 121.668C236.237 122.327 236.706 122.84 237.301 123.207C237.909 123.562 238.599 123.739 239.372 123.739C240.094 123.739 240.727 123.581 241.272 123.264C241.829 122.935 242.26 122.453 242.564 121.82H245.623C245.18 123.175 244.401 124.233 243.286 124.993C242.184 125.74 240.886 126.114 239.391 126.114C238.124 126.114 236.978 125.829 235.952 125.259C234.939 124.676 234.134 123.872 233.539 122.846C232.956 121.82 232.665 120.655 232.665 119.35ZM257.832 115.474V126H255.153V124.67C254.811 125.126 254.361 125.487 253.804 125.753C253.259 126.006 252.664 126.133 252.018 126.133C251.195 126.133 250.466 125.962 249.833 125.62C249.2 125.265 248.699 124.752 248.332 124.081C247.977 123.397 247.8 122.586 247.8 121.649V115.474H250.46V121.269C250.46 122.105 250.669 122.751 251.087 123.207C251.505 123.65 252.075 123.872 252.797 123.872C253.532 123.872 254.108 123.65 254.526 123.207C254.944 122.751 255.153 122.105 255.153 121.269V115.474H257.832ZM263.117 117.108C263.459 116.551 263.902 116.114 264.447 115.797C265.004 115.48 265.637 115.322 266.347 115.322V118.115H265.644C264.808 118.115 264.174 118.311 263.744 118.704C263.326 119.097 263.117 119.781 263.117 120.756V126H260.457V115.474H263.117V117.108ZM270.798 117.108C271.14 116.551 271.583 116.114 272.128 115.797C272.685 115.48 273.319 115.322 274.028 115.322V118.115H273.325C272.489 118.115 271.856 118.311 271.425 118.704C271.007 119.097 270.798 119.781 270.798 120.756V126H268.138V115.474H270.798V117.108ZM285.605 120.509C285.605 120.889 285.579 121.231 285.529 121.535H277.834C277.897 122.295 278.163 122.89 278.632 123.321C279.1 123.752 279.677 123.967 280.361 123.967C281.349 123.967 282.052 123.543 282.47 122.694H285.339C285.035 123.707 284.452 124.543 283.591 125.202C282.729 125.848 281.672 126.171 280.418 126.171C279.404 126.171 278.492 125.949 277.682 125.506C276.884 125.05 276.257 124.41 275.801 123.587C275.357 122.764 275.136 121.814 275.136 120.737C275.136 119.648 275.357 118.691 275.801 117.868C276.244 117.045 276.865 116.411 277.663 115.968C278.461 115.525 279.379 115.303 280.418 115.303C281.418 115.303 282.311 115.518 283.097 115.949C283.895 116.38 284.509 116.994 284.94 117.792C285.383 118.577 285.605 119.483 285.605 120.509ZM282.85 119.749C282.837 119.065 282.59 118.52 282.109 118.115C281.627 117.697 281.038 117.488 280.342 117.488C279.683 117.488 279.126 117.691 278.67 118.096C278.226 118.489 277.954 119.04 277.853 119.749H282.85ZM293.379 115.322C294.633 115.322 295.647 115.721 296.419 116.519C297.192 117.304 297.578 118.406 297.578 119.825V126H294.918V120.186C294.918 119.35 294.709 118.71 294.291 118.267C293.873 117.811 293.303 117.583 292.581 117.583C291.847 117.583 291.264 117.811 290.833 118.267C290.415 118.71 290.206 119.35 290.206 120.186V126H287.546V115.474H290.206V116.785C290.561 116.329 291.011 115.974 291.555 115.721C292.113 115.455 292.721 115.322 293.379 115.322ZM303.205 117.659V122.751C303.205 123.106 303.287 123.365 303.452 123.53C303.629 123.682 303.921 123.758 304.326 123.758H305.561V126H303.889C301.647 126 300.526 124.911 300.526 122.732V117.659H299.272V115.474H300.526V112.871H303.205V115.474H305.561V117.659H303.205Z" fill="white"/>
<path d="M431.5 112.738V114.885H425.971V118.286H430.208V120.395H425.971V126H423.311V112.738H431.5ZM443.323 115.474V126H440.644V124.67C440.302 125.126 439.853 125.487 439.295 125.753C438.751 126.006 438.155 126.133 437.509 126.133C436.686 126.133 435.958 125.962 435.324 125.62C434.691 125.265 434.191 124.752 433.823 124.081C433.469 123.397 433.291 122.586 433.291 121.649V115.474H435.951V121.269C435.951 122.105 436.16 122.751 436.578 123.207C436.996 123.65 437.566 123.872 438.288 123.872C439.023 123.872 439.599 123.65 440.017 123.207C440.435 122.751 440.644 122.105 440.644 121.269V115.474H443.323ZM449.045 117.659V122.751C449.045 123.106 449.127 123.365 449.292 123.53C449.469 123.682 449.76 123.758 450.166 123.758H451.401V126H449.729C447.487 126 446.366 124.911 446.366 122.732V117.659H445.112V115.474H446.366V112.871H449.045V115.474H451.401V117.659H449.045ZM463.251 115.474V126H460.572V124.67C460.23 125.126 459.78 125.487 459.223 125.753C458.678 126.006 458.083 126.133 457.437 126.133C456.614 126.133 455.885 125.962 455.252 125.62C454.619 125.265 454.118 124.752 453.751 124.081C453.396 123.397 453.219 122.586 453.219 121.649V115.474H455.879V121.269C455.879 122.105 456.088 122.751 456.506 123.207C456.924 123.65 457.494 123.872 458.216 123.872C458.951 123.872 459.527 123.65 459.945 123.207C460.363 122.751 460.572 122.105 460.572 121.269V115.474H463.251ZM468.535 117.108C468.877 116.551 469.321 116.114 469.865 115.797C470.423 115.48 471.056 115.322 471.765 115.322V118.115H471.062C470.226 118.115 469.593 118.311 469.162 118.704C468.744 119.097 468.535 119.781 468.535 120.756V126H465.875V115.474H468.535V117.108ZM483.342 120.509C483.342 120.889 483.317 121.231 483.266 121.535H475.571C475.634 122.295 475.9 122.89 476.369 123.321C476.838 123.752 477.414 123.967 478.098 123.967C479.086 123.967 479.789 123.543 480.207 122.694H483.076C482.772 123.707 482.189 124.543 481.328 125.202C480.467 125.848 479.409 126.171 478.155 126.171C477.142 126.171 476.23 125.949 475.419 125.506C474.621 125.05 473.994 124.41 473.538 123.587C473.095 122.764 472.873 121.814 472.873 120.737C472.873 119.648 473.095 118.691 473.538 117.868C473.981 117.045 474.602 116.411 475.4 115.968C476.198 115.525 477.116 115.303 478.155 115.303C479.156 115.303 480.049 115.518 480.834 115.949C481.632 116.38 482.246 116.994 482.677 117.792C483.12 118.577 483.342 119.483 483.342 120.509ZM480.587 119.749C480.574 119.065 480.327 118.52 479.846 118.115C479.365 117.697 478.776 117.488 478.079 117.488C477.42 117.488 476.863 117.691 476.407 118.096C475.964 118.489 475.691 119.04 475.59 119.749H480.587Z" fill="white"/>
<line x1="180" y1="151" x2="180" y2="602" stroke="#FBFAF5" stroke-opacity="0.08" stroke-width="2"/>
<line x1="8.74228e-08" y1="150" x2="537" y2="150" stroke="#FBFAF5" stroke-width="2"/>
<line x1="364" y1="151" x2="364" y2="602" stroke="#FBFAF5" stroke-opacity="0.08" stroke-width="2"/>
</svg>
