<svg width="172" height="87" viewBox="0 0 172 87" fill="none" xmlns="http://www.w3.org/2000/svg">
<path d="M10.921 20.14C9.60102 20.14 8.38768 19.8333 7.28102 19.22C6.18768 18.6067 5.31435 17.7533 4.66102 16.66C4.02102 15.5533 3.70102 14.3133 3.70102 12.94C3.70102 11.5667 4.02102 10.3333 4.66102 9.24C5.31435 8.14667 6.18768 7.29333 7.28102 6.68C8.38768 6.06667 9.60102 5.76 10.921 5.76C12.241 5.76 13.4477 6.06667 14.541 6.68C15.6477 7.29333 16.5143 8.14667 17.141 9.24C17.781 10.3333 18.101 11.5667 18.101 12.94C18.101 14.3133 17.781 15.5533 17.141 16.66C16.501 17.7533 15.6343 18.6067 14.541 19.22C13.4477 19.8333 12.241 20.14 10.921 20.14ZM10.921 17.02C12.041 17.02 12.9343 16.6467 13.601 15.9C14.281 15.1533 14.621 14.1667 14.621 12.94C14.621 11.7 14.281 10.7133 13.601 9.98C12.9343 9.23333 12.041 8.86 10.921 8.86C9.78768 8.86 8.88102 9.22667 8.20102 9.96C7.53435 10.6933 7.20102 11.6867 7.20102 12.94C7.20102 14.18 7.53435 15.1733 8.20102 15.92C8.88102 16.6533 9.78768 17.02 10.921 17.02ZM31.0237 8.84V20H27.6037V18.48C27.257 18.9733 26.7837 19.3733 26.1837 19.68C25.597 19.9733 24.9437 20.12 24.2237 20.12C23.3703 20.12 22.617 19.9333 21.9637 19.56C21.3103 19.1733 20.8037 18.62 20.4437 17.9C20.0837 17.18 19.9037 16.3333 19.9037 15.36V8.84H23.3037V14.9C23.3037 15.6467 23.497 16.2267 23.8837 16.64C24.2703 17.0533 24.7903 17.26 25.4437 17.26C26.1103 17.26 26.637 17.0533 27.0237 16.64C27.4103 16.2267 27.6037 15.6467 27.6037 14.9V8.84H31.0237ZM36.9002 10.7C37.3002 10.0867 37.8002 9.60667 38.4002 9.26C39.0002 8.9 39.6669 8.72 40.4002 8.72V12.34H39.4602C38.6069 12.34 37.9669 12.5267 37.5402 12.9C37.1136 13.26 36.9002 13.9 36.9002 14.82V20H33.4802V8.84H36.9002V10.7ZM45.6932 12.96C45.6932 11.5733 45.9932 10.34 46.5932 9.26C47.1932 8.16667 48.0265 7.32 49.0932 6.72C50.1732 6.10667 51.3932 5.8 52.7532 5.8C54.4199 5.8 55.8465 6.24 57.0332 7.12C58.2199 8 59.0132 9.2 59.4132 10.72H55.6532C55.3732 10.1333 54.9732 9.68667 54.4532 9.38C53.9465 9.07333 53.3665 8.92 52.7132 8.92C51.6599 8.92 50.8065 9.28667 50.1532 10.02C49.4999 10.7533 49.1732 11.7333 49.1732 12.96C49.1732 14.1867 49.4999 15.1667 50.1532 15.9C50.8065 16.6333 51.6599 17 52.7132 17C53.3665 17 53.9465 16.8467 54.4532 16.54C54.9732 16.2333 55.3732 15.7867 55.6532 15.2H59.4132C59.0132 16.72 58.2199 17.92 57.0332 18.8C55.8465 19.6667 54.4199 20.1 52.7532 20.1C51.3932 20.1 50.1732 19.8 49.0932 19.2C48.0265 18.5867 47.1932 17.74 46.5932 16.66C45.9932 15.58 45.6932 14.3467 45.6932 12.96ZM66.5876 20.16C65.4942 20.16 64.5076 19.9267 63.6276 19.46C62.7609 18.9933 62.0742 18.3267 61.5676 17.46C61.0742 16.5933 60.8276 15.58 60.8276 14.42C60.8276 13.2733 61.0809 12.2667 61.5876 11.4C62.0942 10.52 62.7876 9.84667 63.6676 9.38C64.5476 8.91333 65.5342 8.68 66.6276 8.68C67.7209 8.68 68.7076 8.91333 69.5876 9.38C70.4676 9.84667 71.1609 10.52 71.6676 11.4C72.1742 12.2667 72.4276 13.2733 72.4276 14.42C72.4276 15.5667 72.1676 16.58 71.6476 17.46C71.1409 18.3267 70.4409 18.9933 69.5476 19.46C68.6676 19.9267 67.6809 20.16 66.5876 20.16ZM66.5876 17.2C67.2409 17.2 67.7942 16.96 68.2476 16.48C68.7142 16 68.9476 15.3133 68.9476 14.42C68.9476 13.5267 68.7209 12.84 68.2676 12.36C67.8276 11.88 67.2809 11.64 66.6276 11.64C65.9609 11.64 65.4076 11.88 64.9676 12.36C64.5276 12.8267 64.3076 13.5133 64.3076 14.42C64.3076 15.3133 64.5209 16 64.9476 16.48C65.3876 16.96 65.9342 17.2 66.5876 17.2ZM88.482 8.72C89.8686 8.72 90.9686 9.14 91.782 9.98C92.6086 10.82 93.022 11.9867 93.022 13.48V20H89.622V13.94C89.622 13.22 89.4286 12.6667 89.042 12.28C88.6686 11.88 88.1486 11.68 87.482 11.68C86.8153 11.68 86.2886 11.88 85.902 12.28C85.5286 12.6667 85.342 13.22 85.342 13.94V20H81.942V13.94C81.942 13.22 81.7486 12.6667 81.362 12.28C80.9886 11.88 80.4686 11.68 79.802 11.68C79.1353 11.68 78.6086 11.88 78.222 12.28C77.8486 12.6667 77.662 13.22 77.662 13.94V20H74.242V8.84H77.662V10.24C78.0086 9.77333 78.462 9.40667 79.022 9.14C79.582 8.86 80.2153 8.72 80.922 8.72C81.762 8.72 82.5086 8.9 83.162 9.26C83.8286 9.62 84.3486 10.1333 84.722 10.8C85.1086 10.1867 85.6353 9.68667 86.302 9.3C86.9686 8.91333 87.6953 8.72 88.482 8.72ZM109.654 8.72C111.04 8.72 112.14 9.14 112.954 9.98C113.78 10.82 114.194 11.9867 114.194 13.48V20H110.794V13.94C110.794 13.22 110.6 12.6667 110.214 12.28C109.84 11.88 109.32 11.68 108.654 11.68C107.987 11.68 107.46 11.88 107.074 12.28C106.7 12.6667 106.514 13.22 106.514 13.94V20H103.114V13.94C103.114 13.22 102.92 12.6667 102.534 12.28C102.16 11.88 101.64 11.68 100.974 11.68C100.307 11.68 99.7805 11.88 99.3938 12.28C99.0205 12.6667 98.8338 13.22 98.8338 13.94V20H95.4138V8.84H98.8338V10.24C99.1805 9.77333 99.6338 9.40667 100.194 9.14C100.754 8.86 101.387 8.72 102.094 8.72C102.934 8.72 103.68 8.9 104.334 9.26C105 9.62 105.52 10.1333 105.894 10.8C106.28 10.1867 106.807 9.68667 107.474 9.3C108.14 8.91333 108.867 8.72 109.654 8.72ZM127.606 8.84V20H124.186V18.48C123.839 18.9733 123.366 19.3733 122.766 19.68C122.179 19.9733 121.526 20.12 120.806 20.12C119.952 20.12 119.199 19.9333 118.546 19.56C117.892 19.1733 117.386 18.62 117.026 17.9C116.666 17.18 116.486 16.3333 116.486 15.36V8.84H119.886V14.9C119.886 15.6467 120.079 16.2267 120.466 16.64C120.852 17.0533 121.372 17.26 122.026 17.26C122.692 17.26 123.219 17.0533 123.606 16.64C123.992 16.2267 124.186 15.6467 124.186 14.9V8.84H127.606ZM136.862 8.72C138.169 8.72 139.209 9.14667 139.982 10C140.769 10.84 141.162 12 141.162 13.48V20H137.762V13.94C137.762 13.1933 137.569 12.6133 137.182 12.2C136.796 11.7867 136.276 11.58 135.622 11.58C134.969 11.58 134.449 11.7867 134.062 12.2C133.676 12.6133 133.482 13.1933 133.482 13.94V20H130.062V8.84H133.482V10.32C133.829 9.82667 134.296 9.44 134.882 9.16C135.469 8.86667 136.129 8.72 136.862 8.72ZM145.259 7.68C144.659 7.68 144.165 7.50667 143.779 7.16C143.405 6.8 143.219 6.36 143.219 5.84C143.219 5.30667 143.405 4.86667 143.779 4.52C144.165 4.16 144.659 3.98 145.259 3.98C145.845 3.98 146.325 4.16 146.699 4.52C147.085 4.86667 147.279 5.30667 147.279 5.84C147.279 6.36 147.085 6.8 146.699 7.16C146.325 7.50667 145.845 7.68 145.259 7.68ZM146.959 8.84V20H143.539V8.84H146.959ZM155.657 17.1V20H153.917C152.677 20 151.711 19.7 151.017 19.1C150.324 18.4867 149.977 17.4933 149.977 16.12V11.68H148.617V8.84H149.977V6.12H153.397V8.84H155.637V11.68H153.397V16.16C153.397 16.4933 153.477 16.7333 153.637 16.88C153.797 17.0267 154.064 17.1 154.437 17.1H155.657ZM168.962 8.84L161.962 25.3H158.282L160.842 19.62L156.302 8.84H160.122L162.702 15.82L165.262 8.84H168.962Z" fill="#FBD005"/>
<g clip-path="url(#clip0_26_109)">
<path d="M86 52.6833L86 75.3944M94.8667 65.4583L86 75.3944L77.1334 65.4583" stroke="#FBD005" stroke-width="4" stroke-linecap="round" stroke-linejoin="round"/>
</g>
<defs>
<clipPath id="clip0_26_109">
<rect width="30.4" height="34.0667" fill="white" transform="translate(101.2 86.75) rotate(-180)"/>
</clipPath>
</defs>
</svg>
