<svg width="108" height="67" viewBox="0 0 108 67" fill="none" xmlns="http://www.w3.org/2000/svg">
<path d="M11.4405 20.14C10.1205 20.14 8.90721 19.8333 7.80055 19.22C6.70721 18.6067 5.83388 17.7533 5.18055 16.66C4.54055 15.5533 4.22055 14.3133 4.22055 12.94C4.22055 11.5667 4.54055 10.3333 5.18055 9.24C5.83388 8.14667 6.70721 7.29333 7.80055 6.68C8.90721 6.06667 10.1205 5.76 11.4405 5.76C12.7605 5.76 13.9672 6.06667 15.0605 6.68C16.1672 7.29333 17.0339 8.14667 17.6605 9.24C18.3005 10.3333 18.6205 11.5667 18.6205 12.94C18.6205 14.3133 18.3005 15.5533 17.6605 16.66C17.0205 17.7533 16.1539 18.6067 15.0605 19.22C13.9672 19.8333 12.7605 20.14 11.4405 20.14ZM11.4405 17.02C12.5605 17.02 13.4539 16.6467 14.1205 15.9C14.8005 15.1533 15.1405 14.1667 15.1405 12.94C15.1405 11.7 14.8005 10.7133 14.1205 9.98C13.4539 9.23333 12.5605 8.86 11.4405 8.86C10.3072 8.86 9.40055 9.22667 8.72055 9.96C8.05388 10.6933 7.72055 11.6867 7.72055 12.94C7.72055 14.18 8.05388 15.1733 8.72055 15.92C9.40055 16.6533 10.3072 17.02 11.4405 17.02ZM31.5432 8.84V20H28.1232V18.48C27.7765 18.9733 27.3032 19.3733 26.7032 19.68C26.1165 19.9733 25.4632 20.12 24.7432 20.12C23.8899 20.12 23.1365 19.9333 22.4832 19.56C21.8299 19.1733 21.3232 18.62 20.9632 17.9C20.6032 17.18 20.4232 16.3333 20.4232 15.36V8.84H23.8232V14.9C23.8232 15.6467 24.0165 16.2267 24.4032 16.64C24.7899 17.0533 25.3099 17.26 25.9632 17.26C26.6299 17.26 27.1565 17.0533 27.5432 16.64C27.9299 16.2267 28.1232 15.6467 28.1232 14.9V8.84H31.5432ZM37.4198 10.7C37.8198 10.0867 38.3198 9.60667 38.9198 9.26C39.5198 8.9 40.1864 8.72 40.9198 8.72V12.34H39.9798C39.1264 12.34 38.4864 12.5267 38.0598 12.9C37.6331 13.26 37.4198 13.9 37.4198 14.82V20H33.9998V8.84H37.4198V10.7ZM56.8927 5.96V8.7H53.1727V20H49.7527V8.7H46.0327V5.96H56.8927ZM69.1291 14.24C69.1291 14.56 69.1091 14.8933 69.0691 15.24H61.3291C61.3825 15.9333 61.6025 16.4667 61.9891 16.84C62.3891 17.2 62.8758 17.38 63.4491 17.38C64.3025 17.38 64.8958 17.02 65.2291 16.3H68.8691C68.6825 17.0333 68.3425 17.6933 67.8491 18.28C67.3691 18.8667 66.7625 19.3267 66.0291 19.66C65.2958 19.9933 64.4758 20.16 63.5691 20.16C62.4758 20.16 61.5025 19.9267 60.6491 19.46C59.7958 18.9933 59.1291 18.3267 58.6491 17.46C58.1691 16.5933 57.9291 15.58 57.9291 14.42C57.9291 13.26 58.1625 12.2467 58.6291 11.38C59.1091 10.5133 59.7758 9.84667 60.6291 9.38C61.4825 8.91333 62.4625 8.68 63.5691 8.68C64.6491 8.68 65.6091 8.90667 66.4491 9.36C67.2891 9.81333 67.9425 10.46 68.4091 11.3C68.8891 12.14 69.1291 13.12 69.1291 14.24ZM65.6291 13.34C65.6291 12.7533 65.4291 12.2867 65.0291 11.94C64.6291 11.5933 64.1291 11.42 63.5291 11.42C62.9558 11.42 62.4691 11.5867 62.0691 11.92C61.6825 12.2533 61.4425 12.7267 61.3491 13.34H65.6291ZM70.2534 14.4C70.2534 13.2533 70.4667 12.2467 70.8934 11.38C71.3334 10.5133 71.9267 9.84667 72.6734 9.38C73.42 8.91333 74.2534 8.68 75.1734 8.68C75.96 8.68 76.6467 8.84 77.2334 9.16C77.8334 9.48 78.2934 9.9 78.6134 10.42V8.84H82.0334V20H78.6134V18.42C78.28 18.94 77.8134 19.36 77.2134 19.68C76.6267 20 75.94 20.16 75.1534 20.16C74.2467 20.16 73.42 19.9267 72.6734 19.46C71.9267 18.98 71.3334 18.3067 70.8934 17.44C70.4667 16.56 70.2534 15.5467 70.2534 14.4ZM78.6134 14.42C78.6134 13.5667 78.3734 12.8933 77.8934 12.4C77.4267 11.9067 76.8534 11.66 76.1734 11.66C75.4934 11.66 74.9134 11.9067 74.4334 12.4C73.9667 12.88 73.7334 13.5467 73.7334 14.4C73.7334 15.2533 73.9667 15.9333 74.4334 16.44C74.9134 16.9333 75.4934 17.18 76.1734 17.18C76.8534 17.18 77.4267 16.9333 77.8934 16.44C78.3734 15.9467 78.6134 15.2733 78.6134 14.42ZM98.7476 8.72C100.134 8.72 101.234 9.14 102.048 9.98C102.874 10.82 103.288 11.9867 103.288 13.48V20H99.8876V13.94C99.8876 13.22 99.6942 12.6667 99.3076 12.28C98.9342 11.88 98.4142 11.68 97.7476 11.68C97.0809 11.68 96.5542 11.88 96.1676 12.28C95.7942 12.6667 95.6076 13.22 95.6076 13.94V20H92.2076V13.94C92.2076 13.22 92.0142 12.6667 91.6276 12.28C91.2542 11.88 90.7342 11.68 90.0676 11.68C89.4009 11.68 88.8742 11.88 88.4876 12.28C88.1142 12.6667 87.9276 13.22 87.9276 13.94V20H84.5076V8.84H87.9276V10.24C88.2742 9.77333 88.7276 9.40667 89.2876 9.14C89.8476 8.86 90.4809 8.72 91.1876 8.72C92.0276 8.72 92.7742 8.9 93.4276 9.26C94.0942 9.62 94.6142 10.1333 94.9876 10.8C95.3742 10.1867 95.9009 9.68667 96.5676 9.3C97.2342 8.91333 97.9609 8.72 98.7476 8.72Z" fill="#FBD005"/>
<g clip-path="url(#clip0_26_108)">
<path d="M54 39L54 57.6667M61 49.5L54 57.6667L47 49.5" stroke="#FBD005" stroke-width="4" stroke-linecap="round" stroke-linejoin="round"/>
</g>
<defs>
<clipPath id="clip0_26_108">
<rect width="24" height="28" fill="white" transform="translate(66 67) rotate(-180)"/>
</clipPath>
</defs>
</svg>
