<svg width="35" height="36" viewBox="0 0 35 36" fill="none" xmlns="http://www.w3.org/2000/svg">
<g clip-path="url(#clip0_7_78)">
<path d="M29.629 6.73827C27.3977 5.70327 25.0061 4.93827 22.505 4.50327C22.4827 4.49887 22.4597 4.5017 22.439 4.51138C22.4184 4.52105 22.4012 4.53709 22.3898 4.55727C22.0836 5.11077 21.7423 5.83227 21.5031 6.40227C18.8506 5.99462 16.1538 5.99462 13.5013 6.40227C13.2349 5.77056 12.9345 5.1546 12.6015 4.55727C12.5902 4.53684 12.5731 4.52044 12.5525 4.51026C12.5319 4.50007 12.5088 4.49659 12.4863 4.50027C9.98668 4.93527 7.59501 5.70027 5.36231 6.73677C5.3431 6.74505 5.32681 6.75918 5.31564 6.77727C0.777306 13.6398 -0.466652 20.3328 0.144389 26.9418C0.14609 26.958 0.150974 26.9736 0.158746 26.9878C0.166518 27.002 0.177015 27.0144 0.189598 27.0243C2.8385 29.0079 5.79301 30.519 8.92939 31.4943C8.95125 31.5012 8.97464 31.5012 8.99649 31.4942C9.01834 31.4873 9.03765 31.4737 9.05189 31.4553C9.72564 30.5253 10.3265 29.5428 10.8398 28.5108C10.8704 28.4508 10.8413 28.3788 10.78 28.3548C9.83794 27.9899 8.92514 27.5495 8.05001 27.0378C8.03429 27.0285 8.02104 27.0154 8.01145 26.9996C8.00186 26.9838 7.99624 26.9658 7.99508 26.9472C7.99393 26.9287 7.99727 26.9101 8.00483 26.8931C8.01238 26.8762 8.0239 26.8615 8.03835 26.8503C8.2221 26.7108 8.40585 26.5653 8.58085 26.4198C8.5966 26.4067 8.61557 26.3983 8.63566 26.3957C8.65574 26.3931 8.67615 26.3962 8.6946 26.4048C14.4215 29.0508 20.6238 29.0508 26.2836 26.4048C26.3021 26.3957 26.3227 26.3921 26.343 26.3945C26.3634 26.3969 26.3827 26.4051 26.3988 26.4183C26.5738 26.5653 26.7561 26.7108 26.9413 26.8503C26.9559 26.8612 26.9676 26.8758 26.9754 26.8926C26.9832 26.9093 26.9868 26.9279 26.9859 26.9464C26.985 26.965 26.9797 26.9831 26.9704 26.999C26.9611 27.015 26.9481 27.0283 26.9325 27.0378C26.0604 27.5538 25.1533 27.9903 24.2011 28.3533C24.1864 28.3587 24.1731 28.3673 24.162 28.3785C24.1508 28.3897 24.1422 28.4032 24.1365 28.4181C24.1308 28.433 24.1283 28.449 24.1292 28.465C24.13 28.4809 24.1341 28.4966 24.1413 28.5108C24.6663 29.5413 25.2671 30.5223 25.9277 31.4538C25.9415 31.4729 25.9606 31.4872 25.9825 31.4947C26.0044 31.5022 26.0281 31.5026 26.0502 31.4958C29.192 30.5232 32.1513 29.0114 34.8031 27.0243C34.8161 27.015 34.8269 27.0029 34.835 26.989C34.843 26.975 34.8481 26.9594 34.8498 26.9433C35.579 19.3023 33.6277 12.6633 29.6742 6.78027C29.6645 6.76115 29.6484 6.74624 29.629 6.73827ZM11.6958 22.9173C9.9721 22.9173 8.55022 21.3138 8.55022 19.3473C8.55022 17.3793 9.94439 15.7773 11.6958 15.7773C13.4604 15.7773 14.8692 17.3928 14.8415 19.3473C14.8415 21.3153 13.4473 22.9173 11.6958 22.9173ZM23.3261 22.9173C21.6008 22.9173 20.1804 21.3138 20.1804 19.3473C20.1804 17.3793 21.5731 15.7773 23.3261 15.7773C25.0906 15.7773 26.4994 17.3928 26.4717 19.3473C26.4717 21.3153 25.0921 22.9173 23.3261 22.9173Z" fill="#FBFAF5"/>
</g>
<defs>
<clipPath id="clip0_7_78">
<rect width="35" height="36" fill="white"/>
</clipPath>
</defs>
</svg>
