<svg width="44" height="44" viewBox="0 0 44 44" fill="none" xmlns="http://www.w3.org/2000/svg">
<path d="M22 16.2723C18.8461 16.2723 16.2723 18.8461 16.2723 22C16.2723 25.1539 18.8461 27.7278 22 27.7278C25.1539 27.7278 27.7277 25.1539 27.7277 22C27.7277 18.8461 25.1539 16.2723 22 16.2723ZM39.1789 22C39.1789 19.6281 39.2004 17.2778 39.0672 14.9102C38.934 12.1602 38.3066 9.71955 36.2957 7.70861C34.2805 5.69337 31.8441 5.07033 29.0941 4.93712C26.7223 4.80392 24.3719 4.82541 22.0043 4.82541C19.6324 4.82541 17.282 4.80392 14.9145 4.93712C12.1645 5.07033 9.72383 5.69767 7.71289 7.70861C5.69765 9.72384 5.07461 12.1602 4.9414 14.9102C4.8082 17.282 4.82969 19.6324 4.82969 22C4.82969 24.3676 4.8082 26.7223 4.9414 29.0899C5.07461 31.8399 5.70195 34.2805 7.71289 36.2914C9.72812 38.3067 12.1645 38.9297 14.9145 39.0629C17.2863 39.1961 19.6367 39.1746 22.0043 39.1746C24.3762 39.1746 26.7266 39.1961 29.0941 39.0629C31.8441 38.9297 34.2848 38.3024 36.2957 36.2914C38.3109 34.2762 38.934 31.8399 39.0672 29.0899C39.2047 26.7223 39.1789 24.3719 39.1789 22ZM22 30.8129C17.123 30.8129 13.1871 26.877 13.1871 22C13.1871 17.1231 17.123 13.1871 22 13.1871C26.877 13.1871 30.8129 17.1231 30.8129 22C30.8129 26.877 26.877 30.8129 22 30.8129ZM31.1738 14.8844C30.0352 14.8844 29.1156 13.9649 29.1156 12.8262C29.1156 11.6875 30.0352 10.768 31.1738 10.768C32.3125 10.768 33.232 11.6875 33.232 12.8262C33.2324 13.0966 33.1794 13.3644 33.076 13.6142C32.9727 13.8641 32.8211 14.0911 32.63 14.2823C32.4388 14.4735 32.2117 14.6251 31.9619 14.7284C31.712 14.8317 31.4442 14.8847 31.1738 14.8844Z" fill="#FBFAF5"/>
</svg>
