<svg width="73" height="23" viewBox="0 0 73 23" fill="none" xmlns="http://www.w3.org/2000/svg">
<path d="M3.65 22C2.53 22 1.73 21.78 1.25 21.34C0.77 20.9 0.53 20.27 0.53 19.45C0.53 19.05 0.56 18.37 0.62 17.41C0.68 16.43 0.76 15.32 0.86 14.08C0.96 12.84 1.06 11.53 1.16 10.15C1.26 8.77 1.36 7.47 1.46 6.25C1.56 5.03 1.64 3.96 1.7 3.04C1.76 2.12 1.79 1.49 1.79 1.15C1.79 0.849999 1.95 0.699999 2.27 0.699999H3.92C5.04 0.699999 5.81 0.919999 6.23 1.36C6.67 1.78 6.89 2.41 6.89 3.25C6.89 3.35 6.88 3.44 6.86 3.52C6.86 3.6 6.86 3.69 6.86 3.79L5.87 17.8H11.27C11.39 17.8 11.5 17.84 11.6 17.92C11.7 17.98 11.75 18.08 11.75 18.22L11.63 19.99C11.59 20.59 11.42 21.08 11.12 21.46C10.84 21.82 10.25 22 9.35 22H3.65ZM24.1871 0.37C25.6471 0.37 26.8971 0.579999 27.9371 0.999999C28.9771 1.4 29.8271 2 30.4871 2.8C31.1471 3.58 31.6271 4.54 31.9271 5.68C32.2271 6.8 32.3771 8.08 32.3771 9.52C32.3771 10.32 32.3171 11.19 32.1971 12.13C32.0971 13.07 31.8971 14.02 31.5971 14.98C31.3171 15.92 30.9271 16.83 30.4271 17.71C29.9271 18.59 29.2771 19.37 28.4771 20.05C27.6971 20.73 26.7571 21.28 25.6571 21.7C24.5571 22.1 23.2571 22.3 21.7571 22.3C20.0971 22.3 18.7171 22.05 17.6171 21.55C16.5371 21.05 15.6671 20.38 15.0071 19.54C14.3671 18.68 13.9071 17.67 13.6271 16.51C13.3671 15.35 13.2371 14.11 13.2371 12.79C13.2371 11.23 13.4171 9.71 13.7771 8.23C14.1371 6.73 14.7371 5.4 15.5771 4.24C16.4371 3.08 17.5671 2.15 18.9671 1.45C20.3671 0.729999 22.1071 0.37 24.1871 0.37ZM23.5571 5.02C22.8571 5.02 22.2471 5.15 21.7271 5.41C21.2271 5.65 20.7971 5.98 20.4371 6.4C20.0971 6.82 19.8171 7.29 19.5971 7.81C19.3971 8.33 19.2371 8.87 19.1171 9.43C18.9971 9.97 18.9171 10.5 18.8771 11.02C18.8371 11.52 18.8171 11.97 18.8171 12.37C18.8171 14.19 19.1171 15.52 19.7171 16.36C20.3371 17.2 21.2071 17.62 22.3271 17.62C23.2471 17.62 23.9971 17.33 24.5771 16.75C25.1571 16.15 25.6071 15.44 25.9271 14.62C26.2671 13.78 26.4971 12.92 26.6171 12.04C26.7371 11.14 26.7971 10.38 26.7971 9.76C26.7971 8.3 26.5471 7.15 26.0471 6.31C25.5471 5.45 24.7171 5.02 23.5571 5.02ZM48.2152 22C47.1752 22 46.4252 21.79 45.9652 21.37C45.5252 20.93 45.2852 20.39 45.2452 19.75C45.0252 20.43 44.5552 21.03 43.8352 21.55C43.1352 22.05 42.1152 22.3 40.7752 22.3C39.9952 22.3 39.2352 22.15 38.4952 21.85C37.7552 21.53 37.0952 21.01 36.5152 20.29C35.9352 19.57 35.4652 18.61 35.1052 17.41C34.7652 16.21 34.5952 14.72 34.5952 12.94C34.5952 12.26 34.6352 11.48 34.7152 10.6C34.7952 9.7 34.9552 8.79 35.1952 7.87C35.4552 6.93 35.8152 6.02 36.2752 5.14C36.7552 4.24 37.3752 3.44 38.1352 2.74C38.9152 2.04 39.8652 1.48 40.9852 1.06C42.1052 0.619999 43.4452 0.399999 45.0052 0.399999C46.0252 0.399999 46.9352 0.509999 47.7352 0.729998C48.5552 0.949999 49.2452 1.26 49.8052 1.66C50.3852 2.06 50.8252 2.55 51.1252 3.13C51.4452 3.71 51.6052 4.36 51.6052 5.08C51.6052 6.24 51.2252 7.12 50.4652 7.72C49.7052 8.3 48.6352 8.59 47.2552 8.59C46.8152 8.59 46.5452 8.56 46.4452 8.5C46.3652 8.42 46.3152 8.27 46.2952 8.05C46.2552 7.69 46.2252 7.33 46.2052 6.97C46.2052 6.61 46.1552 6.28 46.0552 5.98C45.9752 5.68 45.8252 5.44 45.6052 5.26C45.3852 5.08 45.0352 4.99 44.5552 4.99C43.5752 4.99 42.7952 5.27 42.2152 5.83C41.6352 6.39 41.1952 7.07 40.8952 7.87C40.5952 8.67 40.4052 9.5 40.3252 10.36C40.2452 11.2 40.2052 11.91 40.2052 12.49C40.2052 13.45 40.2652 14.26 40.3852 14.92C40.5052 15.56 40.6752 16.09 40.8952 16.51C41.1352 16.91 41.4152 17.2 41.7352 17.38C42.0552 17.54 42.4252 17.62 42.8452 17.62C43.6052 17.62 44.2452 17.46 44.7652 17.14C45.2852 16.82 45.5952 16.24 45.6952 15.4L45.8752 13.72C45.9352 13.14 46.0152 12.67 46.1152 12.31C46.2152 11.93 46.4552 11.74 46.8352 11.74H48.4852C48.9852 11.74 49.3852 11.8 49.6852 11.92C50.0052 12.02 50.2452 12.2 50.4052 12.46C50.5852 12.7 50.7052 13.02 50.7652 13.42C50.8252 13.82 50.8552 14.31 50.8552 14.89C50.8552 15.29 50.8352 15.82 50.7952 16.48C50.7752 17.14 50.7352 17.81 50.6752 18.49C50.6352 19.17 50.5852 19.8 50.5252 20.38C50.4652 20.94 50.4152 21.33 50.3752 21.55C50.3352 21.73 50.2852 21.85 50.2252 21.91C50.1652 21.97 50.0452 22 49.8652 22H48.2152ZM64.7047 0.37C66.1647 0.37 67.4147 0.579999 68.4547 0.999999C69.4947 1.4 70.3447 2 71.0047 2.8C71.6647 3.58 72.1447 4.54 72.4447 5.68C72.7447 6.8 72.8947 8.08 72.8947 9.52C72.8947 10.32 72.8347 11.19 72.7147 12.13C72.6147 13.07 72.4147 14.02 72.1147 14.98C71.8347 15.92 71.4447 16.83 70.9447 17.71C70.4447 18.59 69.7947 19.37 68.9947 20.05C68.2147 20.73 67.2747 21.28 66.1747 21.7C65.0747 22.1 63.7747 22.3 62.2747 22.3C60.6147 22.3 59.2347 22.05 58.1347 21.55C57.0547 21.05 56.1847 20.38 55.5247 19.54C54.8847 18.68 54.4247 17.67 54.1447 16.51C53.8847 15.35 53.7547 14.11 53.7547 12.79C53.7547 11.23 53.9347 9.71 54.2947 8.23C54.6547 6.73 55.2547 5.4 56.0947 4.24C56.9547 3.08 58.0847 2.15 59.4847 1.45C60.8847 0.729999 62.6247 0.37 64.7047 0.37ZM64.0747 5.02C63.3747 5.02 62.7647 5.15 62.2447 5.41C61.7447 5.65 61.3147 5.98 60.9547 6.4C60.6147 6.82 60.3347 7.29 60.1147 7.81C59.9147 8.33 59.7547 8.87 59.6347 9.43C59.5147 9.97 59.4347 10.5 59.3947 11.02C59.3547 11.52 59.3347 11.97 59.3347 12.37C59.3347 14.19 59.6347 15.52 60.2347 16.36C60.8547 17.2 61.7247 17.62 62.8447 17.62C63.7647 17.62 64.5147 17.33 65.0947 16.75C65.6747 16.15 66.1247 15.44 66.4447 14.62C66.7847 13.78 67.0147 12.92 67.1347 12.04C67.2547 11.14 67.3147 10.38 67.3147 9.76C67.3147 8.3 67.0647 7.15 66.5647 6.31C66.0647 5.45 65.2347 5.02 64.0747 5.02Z" fill="white"/>
</svg>
