<svg width="238" height="238" viewBox="0 0 238 238" fill="none" xmlns="http://www.w3.org/2000/svg">
<circle cx="119" cy="119" r="119" fill="#16021F"/>
<path d="M30.912 91.84L40.068 111.832H35.028L29.204 97.244L30.912 91.84ZM24.892 109.956C24.7427 110.329 24.7147 110.647 24.808 110.908C24.9013 111.169 25.06 111.375 25.284 111.524C25.508 111.655 25.732 111.72 25.956 111.72H26.208V112H20.216V111.72C20.216 111.72 20.2627 111.72 20.356 111.72C20.4307 111.72 20.468 111.72 20.468 111.72C20.8973 111.72 21.336 111.589 21.784 111.328C22.2507 111.048 22.6333 110.591 22.932 109.956H24.892ZM30.912 91.84L31.024 95.256L24.08 111.916H22.036L29.288 95.508C29.344 95.396 29.4373 95.1907 29.568 94.892C29.7173 94.5747 29.8667 94.22 30.016 93.828C30.184 93.436 30.3333 93.0627 30.464 92.708C30.5947 92.3347 30.66 92.0453 30.66 91.84H30.912ZM33.852 105.336V106.512H25.62V105.336H33.852ZM34.272 109.956H39.172C39.4893 110.591 39.872 111.048 40.32 111.328C40.768 111.589 41.2067 111.72 41.636 111.72C41.636 111.72 41.6733 111.72 41.748 111.72C41.8227 111.72 41.86 111.72 41.86 111.72V112H32.956V111.72H33.208C33.5813 111.72 33.908 111.571 34.188 111.272C34.468 110.955 34.496 110.516 34.272 109.956ZM47.9303 95.2V112H43.8983V95.2H47.9303ZM53.5583 103.124V104.244H47.8743V103.124H53.5583ZM54.8463 95.2V96.32H47.8743V95.2H54.8463ZM53.5583 104.188V106.652H53.2783V106.428C53.2783 105.812 53.0823 105.299 52.6903 104.888C52.317 104.477 51.7943 104.263 51.1223 104.244V104.188H53.5583ZM53.5583 100.716V103.18H51.1223V103.124C51.7943 103.105 52.317 102.891 52.6903 102.48C53.0823 102.051 53.2783 101.528 53.2783 100.912V100.716H53.5583ZM54.8463 96.236V99.26H54.5383V98.98C54.5383 98.1773 54.3143 97.5427 53.8663 97.076C53.437 96.5907 52.8023 96.3387 51.9623 96.32V96.236H54.8463ZM54.8463 94.78V95.452L51.8783 95.2C52.233 95.2 52.6063 95.1813 52.9983 95.144C53.409 95.088 53.7823 95.032 54.1183 94.976C54.4543 94.9013 54.697 94.836 54.8463 94.78ZM43.9823 110.236L44.0943 112H42.0223V111.72C42.0223 111.72 42.0783 111.72 42.1903 111.72C42.3023 111.72 42.3676 111.72 42.3863 111.72C42.797 111.72 43.1516 111.58 43.4503 111.3C43.749 111.001 43.8983 110.647 43.8983 110.236H43.9823ZM43.9823 96.964H43.8983C43.8983 96.5347 43.749 96.18 43.4503 95.9C43.1516 95.62 42.797 95.48 42.3863 95.48C42.3676 95.48 42.3023 95.48 42.1903 95.48C42.0783 95.48 42.0223 95.48 42.0223 95.48V95.2H44.0943L43.9823 96.964ZM47.8743 110.236H47.9303C47.949 110.647 48.0983 111.001 48.3783 111.3C48.677 111.58 49.041 111.72 49.4703 111.72C49.4703 111.72 49.5263 111.72 49.6383 111.72C49.7503 111.72 49.8156 111.72 49.8343 111.72L49.8063 112H47.7623L47.8743 110.236ZM71.5947 94.836C71.5947 94.836 71.5947 94.8733 71.5947 94.948C71.5947 95.0227 71.5947 95.06 71.5947 95.06L61.8507 112H57.0347V111.776L66.2467 96.292H57.4267V95.172H68.7387C69.0934 95.172 69.4667 95.1627 69.8587 95.144C70.2694 95.1067 70.6334 95.06 70.9507 95.004C71.268 94.948 71.4827 94.892 71.5947 94.836ZM71.3147 110.908L71.1187 112H58.8827V110.908H71.3147ZM72.6307 106.848L71.4267 112H66.3587L67.3107 110.908C68.188 110.889 68.9534 110.721 69.6067 110.404C70.26 110.087 70.8107 109.629 71.2587 109.032C71.7254 108.416 72.0894 107.688 72.3507 106.848H72.6307ZM57.4267 96.208H60.3107V96.292C59.4894 96.292 58.8454 96.5347 58.3787 97.02C57.9307 97.4867 57.7067 98.1307 57.7067 98.952V99.176H57.4267V96.208ZM57.4267 94.752C57.576 94.808 57.8187 94.8733 58.1547 94.948C58.5094 95.004 58.892 95.06 59.3027 95.116C59.732 95.1533 60.124 95.172 60.4787 95.172L57.4267 95.452V94.752ZM81.9945 94.444L90.2825 111.86H85.5505L80.3425 99.568L81.9945 94.444ZM76.7305 110.152C76.5252 110.656 76.5532 111.048 76.8145 111.328C77.0758 111.589 77.3652 111.72 77.6825 111.72H77.9065V112H72.3065V111.72C72.3065 111.72 72.3438 111.72 72.4185 111.72C72.4932 111.72 72.5305 111.72 72.5305 111.72C72.9038 111.72 73.2958 111.608 73.7065 111.384C74.1172 111.141 74.4532 110.731 74.7145 110.152H76.7305ZM81.9945 94.444L82.0505 97.804L75.9745 111.916H73.9025L80.4545 97.832C80.4918 97.72 80.5758 97.524 80.7065 97.244C80.8372 96.9453 80.9772 96.6187 81.1265 96.264C81.2758 95.8907 81.4158 95.5453 81.5465 95.228C81.6772 94.892 81.7518 94.6307 81.7705 94.444H81.9945ZM84.4305 106.512V107.604H77.2905V106.512H84.4305ZM84.8505 110.152H89.4705C89.7505 110.731 90.0958 111.141 90.5065 111.384C90.9172 111.608 91.3092 111.72 91.6825 111.72C91.6825 111.72 91.7198 111.72 91.7945 111.72C91.8692 111.72 91.9065 111.72 91.9065 111.72V112H83.6745V111.72H83.8985C84.2158 111.72 84.5052 111.589 84.7665 111.328C85.0278 111.048 85.0558 110.656 84.8505 110.152ZM100.014 94.444L108.302 111.86H103.57L98.362 99.568L100.014 94.444ZM94.75 110.152C94.5447 110.656 94.5727 111.048 94.834 111.328C95.0954 111.589 95.3847 111.72 95.702 111.72H95.926V112H90.326V111.72C90.326 111.72 90.3634 111.72 90.438 111.72C90.5127 111.72 90.55 111.72 90.55 111.72C90.9234 111.72 91.3154 111.608 91.726 111.384C92.1367 111.141 92.4727 110.731 92.734 110.152H94.75ZM100.014 94.444L100.07 97.804L93.994 111.916H91.922L98.474 97.832C98.5114 97.72 98.5954 97.524 98.726 97.244C98.8567 96.9453 98.9967 96.6187 99.146 96.264C99.2954 95.8907 99.4354 95.5453 99.566 95.228C99.6967 94.892 99.7714 94.6307 99.79 94.444H100.014ZM102.45 106.512V107.604H95.31V106.512H102.45ZM102.87 110.152H107.49C107.77 110.731 108.115 111.141 108.526 111.384C108.937 111.608 109.329 111.72 109.702 111.72C109.702 111.72 109.739 111.72 109.814 111.72C109.889 111.72 109.926 111.72 109.926 111.72V112H101.694V111.72H101.918C102.235 111.72 102.525 111.589 102.786 111.328C103.047 111.048 103.075 110.656 102.87 110.152ZM115.962 95.2V112H111.93V95.2H115.962ZM122.486 110.88L123.158 112H115.906V110.88H122.486ZM124.334 106.848L123.242 112H118.398L119.266 110.88C120.068 110.88 120.778 110.721 121.394 110.404C122.028 110.068 122.57 109.601 123.018 109.004C123.466 108.388 123.811 107.669 124.054 106.848H124.334ZM111.986 110.236L112.126 112H110.054V111.72C110.054 111.72 110.11 111.72 110.222 111.72C110.334 111.72 110.399 111.72 110.418 111.72C110.828 111.72 111.174 111.58 111.454 111.3C111.752 111.001 111.911 110.647 111.93 110.236H111.986ZM115.906 96.964V95.2H117.838V95.48C117.819 95.48 117.754 95.48 117.642 95.48C117.548 95.48 117.502 95.48 117.502 95.48C117.091 95.48 116.736 95.62 116.438 95.9C116.139 96.18 115.98 96.5347 115.962 96.964H115.906ZM111.986 96.964H111.93C111.911 96.5347 111.752 96.18 111.454 95.9C111.155 95.62 110.8 95.48 110.39 95.48C110.371 95.48 110.306 95.48 110.194 95.48C110.1 95.48 110.054 95.48 110.054 95.48V95.2H111.986V96.964ZM141.381 91.84L150.537 111.832H145.497L139.673 97.244L141.381 91.84ZM135.361 109.956C135.211 110.329 135.183 110.647 135.277 110.908C135.37 111.169 135.529 111.375 135.753 111.524C135.977 111.655 136.201 111.72 136.425 111.72H136.677V112H130.685V111.72C130.685 111.72 130.731 111.72 130.825 111.72C130.899 111.72 130.937 111.72 130.937 111.72C131.366 111.72 131.805 111.589 132.253 111.328C132.719 111.048 133.102 110.591 133.401 109.956H135.361ZM141.381 91.84L141.493 95.256L134.549 111.916H132.505L139.757 95.508C139.813 95.396 139.906 95.1907 140.037 94.892C140.186 94.5747 140.335 94.22 140.485 93.828C140.653 93.436 140.802 93.0627 140.933 92.708C141.063 92.3347 141.129 92.0453 141.129 91.84H141.381ZM144.321 105.336V106.512H136.089V105.336H144.321ZM144.741 109.956H149.641C149.958 110.591 150.341 111.048 150.789 111.328C151.237 111.589 151.675 111.72 152.105 111.72C152.105 111.72 152.142 111.72 152.217 111.72C152.291 111.72 152.329 111.72 152.329 111.72V112H143.425V111.72H143.677C144.05 111.72 144.377 111.571 144.657 111.272C144.937 110.955 144.965 110.516 144.741 109.956ZM158.399 95.2V112H154.367V95.2H158.399ZM164.027 103.124V104.244H158.343V103.124H164.027ZM165.315 95.2V96.32H158.343V95.2H165.315ZM164.027 104.188V106.652H163.747V106.428C163.747 105.812 163.551 105.299 163.159 104.888C162.786 104.477 162.263 104.263 161.591 104.244V104.188H164.027ZM164.027 100.716V103.18H161.591V103.124C162.263 103.105 162.786 102.891 163.159 102.48C163.551 102.051 163.747 101.528 163.747 100.912V100.716H164.027ZM165.315 96.236V99.26H165.007V98.98C165.007 98.1773 164.783 97.5427 164.335 97.076C163.906 96.5907 163.271 96.3387 162.431 96.32V96.236H165.315ZM165.315 94.78V95.452L162.347 95.2C162.702 95.2 163.075 95.1813 163.467 95.144C163.878 95.088 164.251 95.032 164.587 94.976C164.923 94.9013 165.166 94.836 165.315 94.78ZM154.451 110.236L154.563 112H152.491V111.72C152.491 111.72 152.547 111.72 152.659 111.72C152.771 111.72 152.836 111.72 152.855 111.72C153.266 111.72 153.62 111.58 153.919 111.3C154.218 111.001 154.367 110.647 154.367 110.236H154.451ZM154.451 96.964H154.367C154.367 96.5347 154.218 96.18 153.919 95.9C153.62 95.62 153.266 95.48 152.855 95.48C152.836 95.48 152.771 95.48 152.659 95.48C152.547 95.48 152.491 95.48 152.491 95.48V95.2H154.563L154.451 96.964ZM158.343 110.236H158.399C158.418 110.647 158.567 111.001 158.847 111.3C159.146 111.58 159.51 111.72 159.939 111.72C159.939 111.72 159.995 111.72 160.107 111.72C160.219 111.72 160.284 111.72 160.303 111.72L160.275 112H158.231L158.343 110.236ZM182.063 94.836C182.063 94.836 182.063 94.8733 182.063 94.948C182.063 95.0227 182.063 95.06 182.063 95.06L172.319 112H167.503V111.776L176.715 96.292H167.895V95.172H179.207C179.562 95.172 179.935 95.1627 180.327 95.144C180.738 95.1067 181.102 95.06 181.419 95.004C181.737 94.948 181.951 94.892 182.063 94.836ZM181.783 110.908L181.587 112H169.351V110.908H181.783ZM183.099 106.848L181.895 112H176.827L177.779 110.908C178.657 110.889 179.422 110.721 180.075 110.404C180.729 110.087 181.279 109.629 181.727 109.032C182.194 108.416 182.558 107.688 182.819 106.848H183.099ZM167.895 96.208H170.779V96.292C169.958 96.292 169.314 96.5347 168.847 97.02C168.399 97.4867 168.175 98.1307 168.175 98.952V99.176H167.895V96.208ZM167.895 94.752C168.045 94.808 168.287 94.8733 168.623 94.948C168.978 95.004 169.361 95.06 169.771 95.116C170.201 95.1533 170.593 95.172 170.947 95.172L167.895 95.452V94.752ZM192.463 94.444L200.751 111.86H196.019L190.811 99.568L192.463 94.444ZM187.199 110.152C186.994 110.656 187.022 111.048 187.283 111.328C187.545 111.589 187.834 111.72 188.151 111.72H188.375V112H182.775V111.72C182.775 111.72 182.813 111.72 182.887 111.72C182.962 111.72 182.999 111.72 182.999 111.72C183.373 111.72 183.765 111.608 184.175 111.384C184.586 111.141 184.922 110.731 185.183 110.152H187.199ZM192.463 94.444L192.519 97.804L186.443 111.916H184.371L190.923 97.832C190.961 97.72 191.045 97.524 191.175 97.244C191.306 96.9453 191.446 96.6187 191.595 96.264C191.745 95.8907 191.885 95.5453 192.015 95.228C192.146 94.892 192.221 94.6307 192.239 94.444H192.463ZM194.899 106.512V107.604H187.759V106.512H194.899ZM195.319 110.152H199.939C200.219 110.731 200.565 111.141 200.975 111.384C201.386 111.608 201.778 111.72 202.151 111.72C202.151 111.72 202.189 111.72 202.263 111.72C202.338 111.72 202.375 111.72 202.375 111.72V112H194.143V111.72H194.367C194.685 111.72 194.974 111.589 195.235 111.328C195.497 111.048 195.525 110.656 195.319 110.152ZM208.411 95.2V112H204.379V95.2H208.411ZM214.935 110.88L215.607 112H208.355V110.88H214.935ZM216.783 106.848L215.691 112H210.847L211.715 110.88C212.517 110.88 213.227 110.721 213.843 110.404C214.477 110.068 215.019 109.601 215.467 109.004C215.915 108.388 216.26 107.669 216.503 106.848H216.783ZM204.435 110.236L204.575 112H202.503V111.72C202.503 111.72 202.559 111.72 202.671 111.72C202.783 111.72 202.848 111.72 202.867 111.72C203.277 111.72 203.623 111.58 203.903 111.3C204.201 111.001 204.36 110.647 204.379 110.236H204.435ZM208.355 96.964V95.2H210.287V95.48C210.268 95.48 210.203 95.48 210.091 95.48C209.997 95.48 209.951 95.48 209.951 95.48C209.54 95.48 209.185 95.62 208.887 95.9C208.588 96.18 208.429 96.5347 208.411 96.964H208.355ZM204.435 96.964H204.379C204.36 96.5347 204.201 96.18 203.903 95.9C203.604 95.62 203.249 95.48 202.839 95.48C202.82 95.48 202.755 95.48 202.643 95.48C202.549 95.48 202.503 95.48 202.503 95.48V95.2H204.435V96.964Z" fill="url(#paint0_linear_120_3)"/>
<path d="M39 166.611C40.3197 167.301 49.8731 172.509 56.6662 168.495C63.4594 164.481 63.0846 157.566 63.0846 154.397C63.7 153.178 65 152.558 65 149.258C63.7231 150.373 62.4538 150.753 61.1924 150.396C59.9565 148.614 58.2561 147.826 56.0912 148.032C52.8438 148.34 51.6558 151.353 52.0054 155.251C46.9984 157.646 43.0721 153.516 41.0486 150.396C40.3726 152.853 39.7207 155.802 41.0486 159.064C41.934 161.239 44.0621 163.078 47.4332 164.581C44.0168 166.332 41.2058 167.008 39 166.611Z" fill="#2F88FF"/>
<path d="M86.136 153.832L82.04 165H79.32L75.224 153.832H77.624L80.696 162.712L83.752 153.832H86.136ZM88.615 155.08C88.2203 155.08 87.8897 154.957 87.623 154.712C87.367 154.456 87.239 154.141 87.239 153.768C87.239 153.395 87.367 153.085 87.623 152.84C87.8897 152.584 88.2203 152.456 88.615 152.456C89.0097 152.456 89.335 152.584 89.591 152.84C89.8577 153.085 89.991 153.395 89.991 153.768C89.991 154.141 89.8577 154.456 89.591 154.712C89.335 154.957 89.0097 155.08 88.615 155.08ZM89.719 156.136V165H87.479V156.136H89.719ZM100.172 160.376C100.172 160.696 100.151 160.984 100.108 161.24H93.6281C93.6815 161.88 93.9055 162.381 94.3001 162.744C94.6948 163.107 95.1801 163.288 95.7561 163.288C96.5881 163.288 97.1801 162.931 97.5321 162.216H99.9481C99.6921 163.069 99.2015 163.773 98.4761 164.328C97.7508 164.872 96.8601 165.144 95.8041 165.144C94.9508 165.144 94.1828 164.957 93.5001 164.584C92.8281 164.2 92.3001 163.661 91.9161 162.968C91.5428 162.275 91.3561 161.475 91.3561 160.568C91.3561 159.651 91.5428 158.845 91.9161 158.152C92.2895 157.459 92.8121 156.925 93.4841 156.552C94.1561 156.179 94.9295 155.992 95.8041 155.992C96.6468 155.992 97.3988 156.173 98.0601 156.536C98.7321 156.899 99.2495 157.416 99.6121 158.088C99.9855 158.749 100.172 159.512 100.172 160.376ZM97.8521 159.736C97.8415 159.16 97.6335 158.701 97.2281 158.36C96.8228 158.008 96.3268 157.832 95.7401 157.832C95.1855 157.832 94.7161 158.003 94.3321 158.344C93.9588 158.675 93.7295 159.139 93.6441 159.736H97.8521ZM114.095 156.136L111.503 165H109.087L107.471 158.808L105.855 165H103.423L100.815 156.136H103.087L104.655 162.888L106.351 156.136H108.719L110.383 162.872L111.951 156.136H114.095ZM123.056 165.144C122.202 165.144 121.434 164.957 120.752 164.584C120.069 164.2 119.53 163.661 119.136 162.968C118.752 162.275 118.56 161.475 118.56 160.568C118.56 159.661 118.757 158.861 119.152 158.168C119.557 157.475 120.106 156.941 120.8 156.568C121.493 156.184 122.266 155.992 123.12 155.992C123.973 155.992 124.746 156.184 125.44 156.568C126.133 156.941 126.677 157.475 127.072 158.168C127.477 158.861 127.68 159.661 127.68 160.568C127.68 161.475 127.472 162.275 127.056 162.968C126.65 163.661 126.096 164.2 125.392 164.584C124.698 164.957 123.92 165.144 123.056 165.144ZM123.056 163.192C123.461 163.192 123.84 163.096 124.192 162.904C124.554 162.701 124.842 162.403 125.056 162.008C125.269 161.613 125.376 161.133 125.376 160.568C125.376 159.725 125.152 159.08 124.704 158.632C124.266 158.173 123.728 157.944 123.088 157.944C122.448 157.944 121.909 158.173 121.472 158.632C121.045 159.08 120.832 159.725 120.832 160.568C120.832 161.411 121.04 162.061 121.456 162.52C121.882 162.968 122.416 163.192 123.056 163.192ZM134.235 156.008C135.291 156.008 136.144 156.344 136.795 157.016C137.445 157.677 137.771 158.605 137.771 159.8V165H135.531V160.104C135.531 159.4 135.355 158.861 135.003 158.488C134.651 158.104 134.171 157.912 133.563 157.912C132.944 157.912 132.453 158.104 132.091 158.488C131.739 158.861 131.563 159.4 131.563 160.104V165H129.323V156.136H131.563V157.24C131.861 156.856 132.24 156.557 132.699 156.344C133.168 156.12 133.68 156.008 134.235 156.008ZM151.313 153.832V155.64H148.337V165H146.097V155.64H143.121V153.832H151.313ZM165.236 156.136L162.644 165H160.228L158.612 158.808L156.996 165H154.564L151.956 156.136H154.228L155.796 162.888L157.492 156.136H159.86L161.524 162.872L163.092 156.136H165.236ZM167.584 155.08C167.189 155.08 166.858 154.957 166.592 154.712C166.336 154.456 166.208 154.141 166.208 153.768C166.208 153.395 166.336 153.085 166.592 152.84C166.858 152.584 167.189 152.456 167.584 152.456C167.978 152.456 168.304 152.584 168.56 152.84C168.826 153.085 168.96 153.395 168.96 153.768C168.96 154.141 168.826 154.456 168.56 154.712C168.304 154.957 167.978 155.08 167.584 155.08ZM168.688 156.136V165H166.448V156.136H168.688ZM173.509 157.976V162.264C173.509 162.563 173.578 162.781 173.717 162.92C173.866 163.048 174.112 163.112 174.453 163.112H175.493V165H174.085C172.197 165 171.253 164.083 171.253 162.248V157.976H170.197V156.136H171.253V153.944H173.509V156.136H175.493V157.976H173.509ZM179.712 157.976V162.264C179.712 162.563 179.781 162.781 179.92 162.92C180.069 163.048 180.315 163.112 180.656 163.112H181.696V165H180.288C178.4 165 177.456 164.083 177.456 162.248V157.976H176.4V156.136H177.456V153.944H179.712V156.136H181.696V157.976H179.712ZM191.547 160.376C191.547 160.696 191.526 160.984 191.483 161.24H185.003C185.056 161.88 185.28 162.381 185.675 162.744C186.07 163.107 186.555 163.288 187.131 163.288C187.963 163.288 188.555 162.931 188.907 162.216H191.323C191.067 163.069 190.576 163.773 189.851 164.328C189.126 164.872 188.235 165.144 187.179 165.144C186.326 165.144 185.558 164.957 184.875 164.584C184.203 164.2 183.675 163.661 183.291 162.968C182.918 162.275 182.731 161.475 182.731 160.568C182.731 159.651 182.918 158.845 183.291 158.152C183.664 157.459 184.187 156.925 184.859 156.552C185.531 156.179 186.304 155.992 187.179 155.992C188.022 155.992 188.774 156.173 189.435 156.536C190.107 156.899 190.624 157.416 190.987 158.088C191.36 158.749 191.547 159.512 191.547 160.376ZM189.227 159.736C189.216 159.16 189.008 158.701 188.603 158.36C188.198 158.008 187.702 157.832 187.115 157.832C186.56 157.832 186.091 158.003 185.707 158.344C185.334 158.675 185.104 159.139 185.019 159.736H189.227ZM195.422 157.512C195.71 157.043 196.083 156.675 196.542 156.408C197.011 156.141 197.545 156.008 198.142 156.008V158.36H197.55C196.846 158.36 196.313 158.525 195.95 158.856C195.598 159.187 195.422 159.763 195.422 160.584V165H193.182V156.136H195.422V157.512Z" fill="#E4EBFE"/>
<defs>
<linearGradient id="paint0_linear_120_3" x1="119" y1="85" x2="119" y2="123" gradientUnits="userSpaceOnUse">
<stop stop-color="#E4EBFE"/>
<stop offset="1" stop-color="#8FABDA"/>
</linearGradient>
</defs>
</svg>
