<svg width="110" height="110" viewBox="0 0 110 110" fill="none" xmlns="http://www.w3.org/2000/svg">
<g clip-path="url(#clip0_33_762)">
<path d="M109.856 98.0117C109.857 99.5674 109.551 101.108 108.957 102.546C108.362 103.983 107.49 105.29 106.391 106.39C105.291 107.491 103.986 108.364 102.548 108.96C101.111 109.556 99.5709 109.862 98.0152 109.862H11.837C10.2816 109.862 8.74155 109.555 7.30482 108.959C5.8681 108.363 4.56285 107.49 3.46364 106.389C2.36442 105.289 1.49277 103.982 0.898475 102.545C0.304177 101.108 -0.00112579 99.5671 3.1193e-06 98.0117V11.8439C-0.000452933 8.70376 1.24629 5.69199 3.46607 3.47093C5.68584 1.24986 8.69689 0.00136723 11.837 0H98.0152C99.5704 -6.55397e-08 101.11 0.306377 102.547 0.901631C103.984 1.49688 105.289 2.36935 106.389 3.46921C107.488 4.56906 108.36 5.87475 108.955 7.3117C109.55 8.74865 109.856 10.2887 109.856 11.8439V98.0117Z" fill="#1B75BB"/>
<path d="M38.5893 20.3105C33.6926 20.6439 29.6071 22.7837 27.8145 25.7125V84.15C29.6123 87.0856 33.7132 89.2289 38.6168 89.5537L85.9924 55.0584L38.5893 20.3053" fill="white"/>
</g>
<defs>
<clipPath id="clip0_33_762">
<rect width="110" height="110" fill="white"/>
</clipPath>
</defs>
</svg>
